<?xml version="1.0" encoding="UTF-8"?>
<svg id="svg" xmlns="http://www.w3.org/2000/svg" viewBox="0 0 398.55 469.36">
  <defs>
    <style>
      .cls-1 {
        fill: #08110c;
      }

      .cls-1, .cls-2, .cls-3, .cls-4 {
        fill-rule: evenodd;
      }

      .cls-2 {
        fill: #f6da05;
      }

      .cls-3 {
        fill: #969b97;
      }

      .cls-4 {
        fill: #cc041b;
      }
    </style>
  </defs>
  <g id="svgg">
    <path id="path0" class="cls-4" d="M213.51,56.3c0,1.19-9.75,11.22-15.22,15.66-5.86,4.75-16.09,11.23-19.28,12.21-.49.15-1.07.41-1.29.59-3.68,2.87-20.81,7.1-30.55,7.53l-5.74.26-.6,1.6c-.99,2.66-2.97,7.5-3.34,8.17-.19.35-1.72,3.42-3.4,6.83-11.6,23.52-32.46,40.18-53.87,43.05-1.04.14-1.9.34-1.9.44s.49,2.74,1.09,5.85c1.52,7.89,1.61,20.28.19,26.42-4.3,18.69-10.54,27.77-32.41,47.15l-1.71,1.52,1.95,2.48c8.3,10.54,12.2,20.38,12.76,32.2.17,3.58.39,5.27.69,5.16.62-.22,5.05-1.32,9.04-2.25,1.87-.43,5.38-1.25,7.8-1.81,2.42-.56,5.98-1.38,7.9-1.81,6.09-1.37,10.79-2.45,14.1-3.23,1.76-.41,5.63-1.3,8.6-1.97,2.97-.67,6.39-1.48,7.6-1.79,1.21-.32,4.36-1.05,7-1.64s6.69-1.5,9-2.03c2.31-.53,5.82-1.33,7.8-1.78,1.98-.45,5.04-1.15,6.8-1.57,1.76-.42,4.91-1.14,7-1.61,4.08-.92,10.24-2.36,15.4-3.61,1.76-.42,4.82-1.15,6.8-1.61,1.98-.46,5.04-1.18,6.8-1.59,1.76-.42,5.63-1.31,8.6-1.98,2.97-.67,6.48-1.48,7.8-1.8,1.32-.32,4.02-.96,6-1.42,1.98-.46,5.4-1.27,7.6-1.79,2.2-.53,7.96-1.87,12.8-3,12.52-2.9,15.21-3.54,18.6-4.39,8.33-2.09,8.92-1.48,6.94,7.19-.33,1.43-.94,4.49-1.35,6.8-1.59,8.8-3.52,18.42-5.14,25.6-.42,1.87-1.05,4.66-1.39,6.2-5.6,25.27-17.26,55.2-26.08,66.99-21.41,28.61-42.15,32.68-55.02,10.81-3.87-6.58-7.52-25.64-7.55-39.43,0-2.63.08-2.59-3.52-1.72-4.17,1-8.96,2.11-14.49,3.35-4.66,1.04-7.13,1.62-12.2,2.82-1.54.37-4.24.99-6,1.38-1.76.39-5.27,1.2-7.8,1.8-2.53.6-6.13,1.43-8,1.84-1.87.41-4.93,1.1-6.8,1.52-1.87.42-6.73,1.51-10.8,2.42-4.07.91-7.97,1.84-8.66,2.06l-1.26.4,1.92,4.08c5.37,11.42,6.06,24.83,1.72,33.59-.82,1.66-.48,1.79,3.36,1.19,21.67-3.35,37.76,9.5,44.38,35.44l.34,1.34,3.4-2.77c21.08-17.19,43.14-17.39,60.88-.56,1.95,1.85,3.6,3.29,3.67,3.2.08-.09,1.19-1.78,2.47-3.76,16.65-25.68,43.67-38.06,67.21-30.8.75.23.87.06,1.1-1.67,3.41-25.24,22.94-51.16,44.26-58.72,2.71-.96,8.01-2.48,9.7-2.78q1.7-.3.87-3.83c-6.02-25.43,1.1-45.84,23.89-68.48,4.58-4.55,8.15-8.39,7.93-8.53-1.08-.67-6.72-8.73-8.24-11.76-2.32-4.65-3.28-8.15-4.49-16.43-.55-3.78-.87-4.98-1.3-4.94-.52.06-4.37.9-10.57,2.3-1.32.3-6.18,1.38-10.8,2.39s-9.03,2.03-9.8,2.26c-.77.22-2.57.65-4,.96-1.43.3-4.76,1.04-7.4,1.63-2.64.59-6.24,1.4-8,1.79-1.76.39-4.91,1.11-7,1.59-2.09.48-5.78,1.32-8.2,1.88s-5.84,1.33-7.6,1.74c-1.76.41-4.82,1.1-6.8,1.54-1.98.44-5.67,1.28-8.2,1.87-2.53.59-6.13,1.41-8,1.82-6.32,1.4-10.18,2.28-15.6,3.54-2.97.69-6.21,1.43-7.2,1.63-.99.2-3.78.83-6.2,1.4-11.15,2.61-15.66,3.63-24,5.41-1.98.42-5.67,1.23-8.2,1.79-2.53.56-6.13,1.36-8,1.78-1.87.41-5.47,1.23-8,1.81-11.27,2.6-10.74,3.43-8.17-12.79.52-3.3,1.12-7.26,1.33-8.8,1.51-11.08,5.73-32.49,7.65-38.8.2-.66,1.29-4.53,2.41-8.6,10.57-38.25,27.21-64,44.73-69.19,9.74-2.88,19.38,1.12,26.8,11.12,6.09,8.22,9.75,21.39,11.25,40.46.25,3.19.49,5.82.53,5.85.04.03,2.59-.55,5.67-1.28,10.32-2.47,17.91-4.25,25.4-5.95,4.03-.92,12.44-2.88,15.4-3.61,1.32-.32,4.83-1.14,7.8-1.81,8.01-1.82,11.94-2.74,14.4-3.39,1.21-.32,3.96-.98,6.11-1.47,2.15-.49,4.07-1,4.27-1.12.21-.13.04-2.06-.42-4.62-1.27-7.11-1.43-15.33-.41-21.7.47-2.92.85-5.48.85-5.7,0-.23-1.82-.4-4.5-.41-21.66-.08-37.5-14.28-40.95-36.72-.21-1.35-.41-1.69-.91-1.52-.35.12-2.89,1.05-5.64,2.08-24,8.96-48.12,5.83-61.58-8-1.66-1.7-2.82-2.31-2.82-1.48"/>
    <path id="path1" class="cls-1" d="M210.58,1.06c-.36.4-.93,1.52-1.27,2.5-.34.98-.78,2.14-.99,2.58-.21.44-1,2.42-1.76,4.4-1.83,4.77-6.37,14.85-8.37,18.6-.88,1.65-2.03,3.81-2.55,4.8-13.18,24.93-38.72,36.42-64.53,29.02-9.29-2.67-8.3-2.5-9.22-1.58-.61.61-.96,1.83-1.38,4.79-.31,2.18-.84,5.04-1.18,6.35-.34,1.31-.62,2.68-.62,3.03,0,.67-.88,3.76-2.66,9.38-6.09,19.18-15.45,31.23-29.99,38.61-2.16,1.1-4.2,1.99-4.53,1.99-.34,0-1.1.26-1.7.57-.6.31-2.13.78-3.4,1.04-1.27.26-2.59.62-2.94.8-1.26.66-14.77,2.33-20.98,2.6q-8.42.36-6,6.59c.77,1.97,1.4,3.77,1.4,4s.17.73.39,1.11c.43.76,2.26,6.28,3.55,10.69.45,1.54,1.09,3.7,1.41,4.8,6.71,22.62-1.18,40.9-24.75,57.35-4.75,3.31-10.44,7.1-12.4,8.26-1.1.65-2.3,1.36-2.67,1.58-1.79,1.08-6,3.39-8.44,4.63-3.94,2.01-4.87,2.82-4.56,4.04.27,1.06.67,1.3,4.47,2.75,3.09,1.17,7.56,3.31,7.73,3.7.07.16.35.3.62.3,2.55,0,15.52,10.95,18.42,15.57,6.12,9.72,6.48,29.55.79,44.54-1.26,3.32-.26,4.86,2.74,4.22.93-.2,3.31-.7,5.29-1.11,1.98-.41,5.76-1.23,8.4-1.82s6.33-1.41,8.2-1.81c1.87-.41,4.93-1.09,6.8-1.52,1.87-.43,5.56-1.27,8.2-1.86,2.64-.59,6.29-1.42,8.1-1.84,1.82-.42,4.79-1.11,6.6-1.53,1.82-.42,5.46-1.25,8.1-1.84,2.64-.6,6.24-1.41,8-1.82,1.76-.4,4.73-1.09,6.6-1.52,3.06-.7,5.91-1.37,15.6-3.66,6.89-1.63,10.44-2.46,14.6-3.43,2.42-.56,5.84-1.36,7.6-1.77,3-.7,8.14-1.89,15.6-3.6,1.76-.4,4.73-1.1,6.6-1.54,1.87-.44,5.02-1.16,7-1.6,1.98-.44,4.86-1.1,6.4-1.46,1.54-.36,3.88-.9,5.2-1.21,1.32-.31,4.29-1.01,6.6-1.56,2.31-.55,5.73-1.36,7.6-1.8,7.8-1.82,13.94-3.3,16.14-3.88,2.68-.71,2.94-.61,2.34.93-.24.61-.73,2.28-1.09,3.71-.36,1.43-.81,2.96-.99,3.4-.18.44-.78,2.33-1.34,4.2-3.01,10.14-3.54,11.87-3.87,12.6-.2.44-.57,1.61-.82,2.6-.25.99-.6,1.98-.77,2.2-.17.22-.62,1.48-1,2.8-.38,1.32-.82,2.58-.98,2.8-.16.22-.52,1.21-.8,2.2-.28.99-.65,1.98-.82,2.2-.17.22-.54,1.12-.82,2-2.18,6.85-9.38,21.24-14.41,28.8-10.86,16.33-15.38,7.18-14.59-29.6.17-7.92.33-15.93.36-17.8l.05-3.4-1.08-.12c-.6-.07-2.49.25-4.2.7-1.71.45-4.29,1.08-5.72,1.4-1.43.32-4.13.95-6,1.41-1.87.46-5.29,1.27-7.6,1.81-2.31.54-5.64,1.32-7.4,1.74-8.46,2.03-10.72,2.56-14.8,3.46-2.42.54-6.02,1.36-8,1.82-1.98.47-5.04,1.17-6.8,1.57-1.76.4-5.27,1.21-7.8,1.8-2.53.59-6.13,1.42-8,1.83-5.78,1.28-10.01,2.24-14.8,3.37-6.62,1.56-10.92,2.54-14.8,3.39-1.87.41-5.47,1.23-8,1.81-2.53.59-6.13,1.4-8,1.82-1.87.41-4.93,1.1-6.8,1.54-8.44,1.97-12.44,2.89-15.6,3.6-8.33,1.86-8.79,2.74-3.3,6.29,8.07,5.21,10.46,6.87,13.5,9.32,14.02,11.33,16.84,21.16,10.24,35.71-.42.94-1.35,3.05-2.06,4.7-1.35,3.15-5.69,11.84-9.3,18.6-3.08,5.77-6.16,11.55-7.99,15-.88,1.65-2.41,4.53-3.4,6.4s-2.52,4.75-3.4,6.4c-.87,1.65-1.85,3.29-2.16,3.65-2.83,3.23.16,6.01,3.9,3.62,5.43-3.47,22.09-13.7,26.17-16.08,1.76-1.03,5.63-3.36,8.6-5.19,8.05-4.96,11.04-6.64,14.8-8.29,12.25-5.39,22.59,2.18,24.42,17.9,1.1,9.4-1.37,32.02-4.81,43.98-3.52,12.26-2.36,15.16,3.39,8.55,1.31-1.51,4.64-5.18,7.39-8.16,2.75-2.98,6.44-7.02,8.2-8.98,22.88-25.48,33.26-33.23,44.4-33.18,12.72.06,21.66,14.74,25.83,42.38.84,5.57.94,5.89,2.05,6.72,1.3.97,2.85.25,3.57-1.64,1.62-4.26,15.86-32.84,19.58-39.31,1.58-2.73,3.07-5.33,3.32-5.77,10.54-18.66,31.4-28.32,45.38-21.02.37.19,1.66.81,2.87,1.37,5.24,2.43,11.03,7.11,15.54,12.55,4.52,5.47,5.66,3.53,5.66-9.62,0-18.53,1.84-29.72,6.66-40.59.52-1.16.94-2.18.94-2.26s.75-1.47,1.66-3.09c6.96-12.31,16.5-19.68,28.86-22.33,1.03-.22,2.66-.57,3.63-.78,3.52-.76,13.31-1.26,19.51-.99l6.26.27,1.04-1.04c1.39-1.39,1.32-2.68-.33-6.07-13.05-26.8-14.56-40.3-6.15-54.98,6.59-11.5,19-23.39,33.72-32.31,2.08-1.26,12.2-6.93,13.8-7.73,2.09-1.04,2.39-1.4,2.39-2.87,0-1.36.03-1.34-5.32-2.94-15.02-4.46-23.45-10.37-28.03-19.65-4.07-8.23-2.63-23.82,3.32-36.11,2.68-5.52,1.56-6.09-7.56-3.87-5.34,1.3-10.53,2.53-14.6,3.44-1.76.4-5.27,1.21-7.8,1.8s-6.04,1.41-7.8,1.8-4.82,1.1-6.8,1.57c-1.98.47-5.67,1.31-8.2,1.88-2.53.56-6.13,1.37-8,1.79s-5.02,1.14-7,1.59c-1.98.45-5.58,1.24-8,1.76s-6.02,1.32-8,1.78c-1.98.46-5.67,1.27-8.2,1.82s-6.22,1.37-8.2,1.82c-3.56.82-6.02,1.37-15,3.35-2.53.56-6.22,1.39-8.2,1.85-5.52,1.28-10.02,2.27-14.31,3.15-2.15.44-4.07.9-4.26,1.02-.19.12-2.13.6-4.29,1.06-6.51,1.39-10.49,2.25-15.54,3.38-5.49,1.22-9.82,2.15-15.75,3.35-2.28.46-4.31.94-4.5,1.06-.72.45-.77-.99-.13-3.87,1.46-6.6,2.12-9.49,2.75-11.96,1.29-5.04,2.7-10.22,3.24-11.8.3-.88,1.03-3.22,1.64-5.2,1.08-3.54,4.22-12.43,4.94-14,.43-.93,2.26-5.46,2.91-7.18,3.8-10.16,13.76-25.27,15.8-23.98,5.05,3.18,9.73,35.74,7.69,53.51-.63,5.51-.16,5.98,4.88,4.87,3.48-.77,10.72-2.33,15.73-3.4,1.98-.42,5.67-1.24,8.2-1.83,8.84-2.04,11.43-2.64,14.8-3.4,1.87-.42,5.47-1.24,8-1.82,2.53-.58,6.17-1.39,8.1-1.81,1.93-.42,5.08-1.1,7-1.52,1.93-.42,5.66-1.25,8.3-1.85,5.97-1.35,13.7-3.08,23.2-5.2,2.64-.59,6.33-1.41,8.2-1.84,1.87-.42,5.02-1.12,7-1.55,1.98-.43,5.67-1.26,8.2-1.83,5.77-1.31,10.38-2.32,15.01-3.29,8.71-1.83,9.65-3.07,5.67-7.51-4.46-4.98-9.46-12.53-10.92-16.48-.38-1.04-.85-2.09-1.04-2.34-1.3-1.73-1.95-12.49-1.1-18.27.87-5.89,3.87-14.97,7.58-22.88.88-1.88,1.6-3.48,1.6-3.57,0-.32,6.95-12.44,7.67-13.37,1.47-1.9.75-4.05-1.35-4.05-.93,0-6.06,1.8-9.31,3.26-.44.2-1.7.61-2.8.93-1.1.31-3.53,1.04-5.4,1.62-22.79,7.1-35.49,6.18-39.77-2.85-3.75-7.93-3.18-27.79,1.54-52.76,1.62-8.61-.34-9.29-7.11-2.47-10.18,10.26-22.49,19.9-33.06,25.9-1.45.82-4.79,2.31-6.23,2.77-.86.28-1.75.64-1.97.81-.67.51-8.79,1.99-10.94,1.99-12.99,0-23.46-10.84-37.5-38.84-2.77-5.52-4.48-6.84-6.29-4.84M215.22,15.35c8.89,16.38,15.79,25.66,22.54,30.31,12.93,8.92,31.13,5.73,50.68-8.88,2.01-1.5,11.13-8.84,11.48-9.24.78-.88,5.73-4.8,6.07-4.8.23,0,.33.4.21.9-1.93,8.02-3.05,30.59-1.88,37.7,3.61,21.94,16.26,25.36,52.81,14.28,3.62-1.1,3.81-1.13,3.73-.66-.04.23-1.16,2.69-2.49,5.47-8.99,18.79-11.65,31.13-9.58,44.41.23,1.48.58,2.8.78,2.92.2.12.36.5.36.83,0,2.12,5.43,12.09,9.3,17.08,2.12,2.73,2.64,2.35-6,4.33-1.81.42-4.78,1.1-6.6,1.51-1.82.42-5.37,1.21-7.9,1.77-2.53.55-6.22,1.38-8.2,1.83-1.98.45-5.67,1.28-8.2,1.84s-6.13,1.36-8,1.79c-6.13,1.38-12.54,2.83-16.2,3.65-5.98,1.34-9.77,2.21-14.6,3.34-2.53.59-6.13,1.42-8,1.83-1.87.41-5.02,1.12-7,1.58-1.98.45-5.22,1.17-7.2,1.6-3.88.84-10.75,2.36-16.2,3.59-1.87.42-5.11,1.13-7.2,1.58-2.09.45-4.43.99-5.2,1.22-.77.22-1.51.41-1.65.41s-.36-5.81-.5-12.9c-.14-7.1-.41-13.89-.6-15.1-.19-1.21-.57-3.64-.83-5.4-2.33-15.63-7.07-25.8-12.04-25.8s-15.39,13.86-21.75,29.6c-1.9,4.71-4.8,12.63-6.08,16.6-.78,2.42-1.57,4.76-1.77,5.2-.19.44-.62,1.79-.94,3s-1.05,3.73-1.62,5.6c-.56,1.87-1.37,4.84-1.8,6.6-.43,1.76-1.16,4.73-1.62,6.6-4.83,19.45-4.95,19.23,8.4,16.19,6.09-1.38,10.39-2.34,16.2-3.61,5.42-1.18,10.02-2.21,15-3.34,1.87-.43,5.56-1.26,8.2-1.85,6.01-1.34,9.9-2.21,16-3.58,2.64-.59,6.42-1.41,8.4-1.83,1.98-.41,5.58-1.22,8-1.79,2.42-.57,5.3-1.2,6.4-1.41,1.1-.21,3.08-.64,4.4-.96,1.32-.32,4.47-1.03,7-1.59,2.53-.55,6.67-1.47,9.2-2.03,2.53-.56,6.31-1.4,8.4-1.87s5.24-1.16,7-1.56c1.76-.39,5-1.11,7.2-1.59,2.2-.49,5.8-1.3,8-1.8,2.2-.51,5.8-1.32,8-1.8,2.2-.48,6.88-1.57,10.4-2.41,3.52-.84,8.38-2,10.8-2.58,2.42-.58,6.18-1.5,8.35-2.05,2.17-.55,4.01-.94,4.09-.86.18.18-.55,3.03-1.05,4.1-.83,1.78-2.46,9.89-2.87,14.33-1.69,18.07,6.78,30.38,26.38,38.34,3.94,1.6,3.89,1.41.8,3.11-4.61,2.52-13.23,8.44-18.86,12.94-9.98,7.98-22.26,22.63-24.04,28.69-.16.55-.43,1.18-.6,1.4-.73.96-2.41,7.55-2.83,11.15-1.21,10.26,1.5,21.33,9.59,39.2.68,1.51,1.24,2.79,1.24,2.84s-3.83.21-8.5.35c-4.68.14-9.49.43-10.7.64-7.46,1.3-9.42,1.78-13.39,3.27-22.37,8.38-35.27,33.11-35.39,67.85-.02,5.52-.17,5.73-2.42,3.46-5.04-5.09-15.55-10.11-24.31-11.62-11.35-1.96-27.65,5.95-36.41,17.66-6.13,8.19-11.47,17.88-22.52,40.89-2.57,5.35-2.47,5.31-3.28,1.41-3.48-16.69-7.01-24.9-13.86-32.25-5.7-6.11-11.73-8.18-19.54-6.68-12.88,2.46-21.07,8.71-42.28,32.24-6.96,7.72-11.14,12.19-11.28,12.05-.16-.16.99-8.17,1.29-9.02.11-.31.57-3.01,1.01-6,.45-2.99.98-6.52,1.19-7.84,3.99-25.49-4.76-43.66-21-43.58-7.02.03-11.53,1.87-23.42,9.57-2.04,1.32-16.17,9.98-22.1,13.55-7.57,4.55-7.55,5.29-.23-8.34,16.92-31.49,20.71-40.64,20.72-50.05.01-11.11-6.25-20.22-21.12-30.76-2.84-2.01-3.53-3-2.1-3,.72,0,15.03-3.09,22.23-4.79,1.76-.42,4.82-1.13,6.8-1.58,1.98-.45,5.58-1.28,8-1.84,2.42-.56,5.66-1.3,7.2-1.64,2.92-.65,6.18-1.4,13.6-3.13,10.38-2.41,12.81-2.96,23.8-5.43,1.87-.42,6.55-1.5,10.4-2.4,7.57-1.77,13.33-3.11,19-4.42,11.29-2.61,20.07-4.69,21.79-5.16,1.95-.54,2.03-.32,1.55,4.38-1.29,12.93.18,38.94,2.58,45.7,4.35,12.2,14.8,9.67,23.65-5.73.43-.75,1.53-2.64,2.44-4.2,2.67-4.57,6.42-12.43,8.63-18.09.66-1.68,1.35-3.42,1.54-3.86,2.11-4.92,7.05-19.93,10.4-31.6,2.12-7.37,2.86-9.91,3.49-12,1.52-4.99,1.04-7.8-1.32-7.8-1.1,0-6.49,1.04-8.36,1.62-1.25.38-12.17,3.05-21.2,5.17-2.86.67-5.74,1.39-6.4,1.59-.66.2-1.83.48-2.6.63-.77.15-3.2.68-5.4,1.19-2.2.51-5.26,1.2-6.8,1.55-1.54.34-4.87,1.1-7.4,1.68-2.53.58-6.13,1.41-8,1.83-3.93.89-8.45,1.94-14.4,3.32-2.31.54-6.36,1.46-9,2.05-2.64.59-5.38,1.24-6.08,1.45-.7.21-2.86.72-4.8,1.14-1.94.42-5.5,1.23-7.92,1.8s-6.02,1.4-8,1.84c-4.75,1.06-9.15,2.06-13.8,3.15-2.09.49-5.69,1.32-8,1.83-2.31.52-5.82,1.32-7.8,1.79-4.83,1.14-11.64,2.69-15.8,3.6-1.87.41-5.02,1.11-7,1.55-12.08,2.7-17.04,3.72-17.2,3.56-.06-.07.13-1.39.44-2.93.31-1.54.85-4.24,1.19-6,1.5-7.63,1.14-21.31-.73-27.4-3.18-10.37-11.93-19.53-25.81-27.03-1.59-.86-2.89-1.65-2.89-1.76.01-.17,2.43-1.66,8.96-5.51,28.4-16.74,41.81-35.34,40.43-56.1-.65-9.86-1.97-15.56-7.24-31.33-1.26-3.76-1.78-3.29,4.23-3.81,30-2.57,48.29-13.65,58.58-35.47.62-1.32,1.53-3.21,2.01-4.2s1.47-3.51,2.19-5.6c.72-2.09,1.46-4.16,1.65-4.6.19-.44.54-1.61.79-2.6.25-.99.69-2.61.99-3.6.48-1.61,1.76-7.27,2.41-10.7.21-1.08.4-1.27,1.12-1.11.48.11,2.76.64,5.07,1.19,8.41,2,18.28,2.25,25.61.65,4.21-.92,8.06-2,8.59-2.41.22-.17,1.12-.54,1.99-.82,16.79-5.41,30.04-21.12,42.18-49.99,2.58-6.13,2.05-5.97,4.53-1.39M211.91,47.14c-.44.44-.8.98-.8,1.2s-.84,1.7-1.86,3.3c-8.03,12.56-20.51,22.43-37.54,29.7-8.13,3.47-18.8,5.31-28.06,4.85l-5.26-.26-.83,1.06c-.46.58-.84,1.24-.84,1.45,0,1.25-6.85,17.27-9.54,22.31-5.78,10.83-18.74,24.97-24.86,27.11-.33.12-.88.44-1.21.72-2.66,2.24-14.21,6.82-20.22,8.02-1.75.35-4.33.87-5.75,1.15-3.89.77-4.22,1.53-2.68,6.06,3.6,10.57,3.59,25.46-.02,36.75-4.47,13.99-16.31,28.46-32.19,39.35-4.32,2.96-4.31,3.01.69,7.77,9.64,9.19,13.41,18.08,13.64,32.08.12,7.34.22,8.46.81,8.9.8.59,4.86.64,7.13.09.88-.21,3.67-.86,6.2-1.44,2.53-.58,5.95-1.37,7.6-1.76,5.72-1.36,12.22-2.85,15.6-3.6,1.87-.41,4.93-1.11,6.8-1.55,1.87-.44,5.38-1.25,7.8-1.81,2.42-.56,5.97-1.38,7.9-1.84,3.88-.92,7.82-1.83,14.7-3.42,2.53-.58,6.13-1.42,8-1.86,1.87-.44,4.84-1.13,6.6-1.52,2.89-.65,5.67-1.3,15.6-3.65,1.76-.42,4.73-1.1,6.6-1.51,1.87-.42,5.47-1.24,8-1.84,2.53-.59,6.04-1.4,7.8-1.8,1.76-.39,5.27-1.2,7.8-1.8s6.09-1.42,7.9-1.84c1.82-.42,4.83-1.12,6.7-1.56s4.88-1.14,6.7-1.56c1.82-.42,5.37-1.25,7.9-1.84s6.04-1.4,7.8-1.8c1.76-.4,5.27-1.2,7.8-1.79,12.06-2.82,11.34-2.75,10.78-1.07-.37,1.12-1.89,8.59-2.98,14.67-2.18,12.15-4.17,21.68-6.41,30.6-1.14,4.53-3.91,13.83-4.6,15.4-.19.44-1.63,4.67-3.2,9.39-1.57,4.72-3.18,9.31-3.57,10.2-.4.88-1.27,2.87-1.94,4.41-7.81,17.96-21.18,33.7-32.84,38.68-12.12,5.17-23.54-3.46-26.82-20.27-.26-1.32-.62-3.03-.81-3.8-.73-3-1.81-13.61-2.38-23.34-.31-5.24-.39-5.6-1.38-6.59l-1.05-1.05-3.1.67c-2.99.65-6.96,1.57-13.3,3.09-6.36,1.52-17.31,4.05-22.6,5.22-3.52.77-9.17,2.09-15.6,3.62-3.03.72-4.98,1.16-15,3.4-6.86,1.53-12.67,2.9-16.04,3.8-3.78,1-4.38,3.24-1.84,6.9,4.05,5.85,5.85,11.19,6.17,18.29.32,7.11-.24,9.85-4.07,19.94-2.04,5.38-1.29,8.19,1.84,6.89,12-4.95,22.76-4.39,31.73,1.65,7.52,5.07,14.54,17.6,16.15,28.88,1.11,7.75,2.04,8.05,7.99,2.58,9.33-8.59,16.69-12.5,27.03-14.36,14.12-2.55,23.22,1.57,36.04,16.31,2.48,2.85,3.78,2.23,6.44-3.04,10.35-20.5,31.4-34.86,51.35-35.02,5.18-.04,4.95-.08,12.93,2.39,6.01,1.86,6.87,1.38,7.18-4.03,1.61-28.17,25.66-55.77,51.88-59.53,3.51-.5,5.66-2.12,5.03-3.78-.97-2.52-3.11-12.55-3.65-17.09-.89-7.44.63-18.37,3.39-24.4.2-.44.99-2.16,1.75-3.82,4.15-9.08,18.66-26.26,28.01-33.18,2.84-2.1,2.97-3.57.53-6.08-8.88-9.14-12.8-18.44-13.6-32.26-.31-5.34-.63-5.61-5.23-4.42-.88.23-3.13.74-5,1.15-3.29.71-9.35,2.08-16.4,3.69-1.87.43-4.93,1.1-6.8,1.51-1.87.4-5.83,1.3-8.8,1.99s-6.39,1.45-7.6,1.67c-1.21.22-2.74.58-3.4.79-.66.21-4.53,1.11-8.6,2.01-4.07.89-8.93,1.99-10.8,2.43-8.01,1.9-16.55,3.86-22.4,5.15-1.87.41-4.93,1.1-6.8,1.53-1.87.43-5.56,1.26-8.2,1.85s-6.24,1.39-8,1.79c-3.06.68-8.63,1.92-16.4,3.63-1.98.44-5.13,1.15-7,1.58-1.87.43-5.47,1.24-8,1.79-4.4.96-7.34,1.62-15.1,3.41-1.93.44-5.21,1.15-7.3,1.58-2.09.43-4.88,1.04-6.2,1.36-1.32.32-2.99.69-3.71.81l-1.31.23.24-2.09c1.66-14.8,6.77-41.9,10.56-55.99.46-1.7,1.18-4.4,1.6-6,1.65-6.2,4.81-15.48,6.84-20.1,20.02-45.48,42.1-57.17,56.95-30.15,4.32,7.87,7.77,23.58,8.04,36.66.17,8.25.5,8.55,7.54,6.94,1.79-.41,5.14-1.15,7.45-1.65,2.31-.5,5.28-1.17,6.6-1.5,1.32-.33,3.93-.93,5.8-1.34,1.87-.41,4.93-1.11,6.8-1.57,6.01-1.46,10.12-2.42,13.6-3.19,1.87-.41,5.56-1.24,8.2-1.83,2.64-.59,6.24-1.4,8-1.8,1.76-.4,5.36-1.2,8-1.79,2.64-.59,6.33-1.42,8.2-1.84s4.93-1.1,6.8-1.49c5.69-1.21,6.2-2.13,4.23-7.66-2.32-6.5-2.43-20.64-.21-28.63,1.9-6.85,1.41-7.37-6.85-7.38-23.99-.03-37.76-12.6-39.01-35.59-.35-6.49-1.05-7.44-4.1-5.58-24.41,14.89-54.59,12.68-67.86-4.95-2.88-3.83-4.6-4.68-6.21-3.07M216.33,57.77c13.47,13.83,37.59,16.96,61.58,8,2.75-1.03,5.29-1.96,5.64-2.08.5-.16.7.17.91,1.52,3.44,22.43,19.29,36.64,40.95,36.72,2.68.01,4.5.18,4.5.41,0,.22-.38,2.78-.85,5.7-1.02,6.37-.86,14.59.41,21.7.46,2.56.63,4.49.42,4.62-.2.12-2.12.63-4.27,1.12-2.15.49-4.9,1.15-6.11,1.47-2.46.64-6.39,1.57-14.4,3.39-2.97.67-6.48,1.49-7.8,1.81-2.96.72-11.37,2.69-15.4,3.61-7.49,1.7-15.08,3.48-25.4,5.95-3.08.74-5.63,1.32-5.67,1.28-.04-.03-.28-2.67-.53-5.85-1.5-19.08-5.16-32.24-11.25-40.46-7.42-10-17.06-14.01-26.8-11.12-17.52,5.19-34.17,30.94-44.73,69.19-1.12,4.07-2.21,7.94-2.41,8.6-1.92,6.31-6.14,27.71-7.65,38.8-.21,1.54-.81,5.5-1.33,8.8-2.57,16.22-3.1,15.39,8.17,12.79,2.53-.58,6.13-1.4,8-1.81,1.87-.41,5.47-1.21,8-1.78,2.53-.56,6.22-1.37,8.2-1.79,8.34-1.78,12.85-2.8,24-5.41,2.42-.57,5.21-1.19,6.2-1.4.99-.2,4.23-.94,7.2-1.63,5.42-1.26,9.28-2.14,15.6-3.54,1.87-.41,5.47-1.23,8-1.82,2.53-.59,6.22-1.43,8.2-1.87,1.98-.44,5.04-1.14,6.8-1.54,1.76-.41,5.18-1.19,7.6-1.74s6.11-1.39,8.2-1.88c2.09-.48,5.24-1.2,7-1.59,1.76-.39,5.36-1.2,8-1.79,2.64-.59,5.97-1.33,7.4-1.63,1.43-.3,3.23-.73,4-.96.77-.22,5.18-1.24,9.8-2.26s9.48-2.1,10.8-2.39c6.19-1.4,10.05-2.24,10.57-2.3.43-.05.74,1.16,1.3,4.94,1.21,8.28,2.17,11.78,4.49,16.43,1.52,3.04,7.16,11.1,8.24,11.76.22.14-3.35,3.97-7.93,8.53-14.32,14.23-20.58,24.09-24.04,37.88-2.26,9.04-2.21,20.65.15,30.6q.83,3.52-.87,3.83c-9.94,1.76-20.05,6.93-29.2,14.96-12.08,10.59-22.56,30.28-24.75,46.55-.23,1.73-.35,1.9-1.1,1.67-23.54-7.26-50.56,5.12-67.21,30.8-1.29,1.98-2.4,3.67-2.47,3.76-.07.08-1.73-1.36-3.67-3.2-17.74-16.84-39.81-16.64-60.88.56l-3.4,2.77-.34-1.34c-6.62-25.94-22.71-38.79-44.38-35.44-3.84.59-4.18.47-3.36-1.19,4.33-8.76,3.64-22.18-1.72-33.59l-1.92-4.08,1.26-.4c.7-.22,4.59-1.15,8.66-2.06,4.07-.91,8.93-2,10.8-2.42,1.87-.42,4.93-1.11,6.8-1.52,1.87-.41,5.47-1.24,8-1.84,2.53-.6,6.04-1.41,7.8-1.8,1.76-.39,4.46-1.01,6-1.38,5.07-1.21,7.54-1.78,12.2-2.82,5.53-1.24,10.32-2.35,14.49-3.35,3.6-.87,3.51-.91,3.52,1.72.03,13.8,3.68,32.85,7.55,39.43,12.86,21.88,33.61,17.8,55.02-10.81,8.82-11.79,20.48-41.73,26.08-66.99.34-1.54.97-4.33,1.39-6.2,1.62-7.18,3.56-16.8,5.14-25.6.42-2.31,1.03-5.37,1.35-6.8,1.98-8.66,1.39-9.28-6.94-7.19-3.39.85-6.08,1.48-18.6,4.39-4.84,1.12-10.6,2.47-12.8,3-2.2.53-5.62,1.33-7.6,1.79-1.98.46-4.68,1.1-6,1.42-1.32.32-4.83,1.13-7.8,1.8-2.97.67-6.84,1.56-8.6,1.98-1.76.42-4.82,1.13-6.8,1.59-1.98.46-5.04,1.18-6.8,1.61-5.16,1.24-11.32,2.69-15.4,3.61-2.09.47-5.24,1.2-7,1.61-1.76.41-4.82,1.12-6.8,1.57-1.98.45-5.49,1.25-7.8,1.78-2.31.53-6.36,1.44-9,2.03s-5.79,1.32-7,1.64c-1.21.32-4.63,1.12-7.6,1.79-2.97.67-6.84,1.56-8.6,1.97-3.3.78-8,1.85-14.1,3.23-1.93.43-5.48,1.25-7.9,1.81-2.42.56-5.93,1.38-7.8,1.81-3.99.92-8.42,2.02-9.04,2.25-.3.11-.52-1.58-.69-5.16-.56-11.82-4.46-21.67-12.76-32.2l-1.95-2.48,1.71-1.52c21.87-19.38,28.11-28.46,32.41-47.15,1.41-6.14,1.32-18.53-.19-26.42-.6-3.11-1.09-5.75-1.09-5.85s.86-.3,1.9-.44c21.42-2.87,42.27-19.53,53.87-43.05,1.68-3.41,3.21-6.48,3.4-6.83.36-.67,2.34-5.51,3.34-8.17l.6-1.6,5.74-.26c9.73-.44,26.87-4.66,30.55-7.53.22-.17.8-.44,1.29-.59,3.19-.98,13.42-7.46,19.28-12.21,5.47-4.44,15.22-14.47,15.22-15.66,0-.83,1.16-.22,2.82,1.48"/>
    <path id="path2" class="cls-2" d="M212.22,13.44c-.35.82-1.21,2.85-1.9,4.5-2.08,4.98-7.63,16.48-9.46,19.6-15.83,27.08-41.66,38.85-69.56,31.7-4.74-1.21-4.92-1.2-5.19.56-.84,5.42-3.6,15.49-6.02,21.94-9.14,24.47-25.81,38.79-49.8,42.79-6.69,1.12-8.5,1.34-13.32,1.62-4.02.24-4.69.37-4.49.9,10.75,28.01,10.84,46.6.31,62.21-6.79,10.08-20.33,21.18-38.4,31.47-3.55,2.02-3.55,1.93,0,3.78,24.44,12.7,31.8,30.67,24.96,60.92-.31,1.38-.45,2.5-.31,2.5s.88-.18,1.65-.41c.77-.23,3.11-.76,5.2-1.19,3.55-.73,5.3-1.11,14.6-3.14,1.98-.43,5.67-1.27,8.2-1.86,2.53-.59,6.04-1.39,7.8-1.79,1.76-.39,5.27-1.2,7.8-1.8,2.53-.6,6.04-1.4,7.8-1.8,7.8-1.75,10.69-2.41,15-3.41,2.53-.59,6.04-1.39,7.8-1.79,1.76-.4,4.73-1.08,6.6-1.52,7.08-1.67,12.71-2.98,15.8-3.66,1.76-.39,5.27-1.2,7.8-1.79,5.36-1.26,10.04-2.34,14.8-3.42,1.87-.42,5.38-1.22,7.8-1.77,2.42-.55,5.3-1.19,6.4-1.42,1.1-.23,3.08-.68,4.4-1,1.32-.32,4.83-1.12,7.8-1.79,2.97-.67,6.39-1.48,7.6-1.8,1.21-.33,4.54-1.14,7.4-1.8,2.86-.67,5.76-1.39,6.44-1.61,1.35-.44,5.86-1.49,12.9-3.01,7.52-1.62,7.93-.58,4.46,11.41-.48,1.65-1.29,4.53-1.81,6.4-.52,1.87-1.33,4.66-1.81,6.2s-1.21,3.97-1.62,5.4c-2.15,7.37-8.91,25.82-11.35,31-.31.66-1.29,2.73-2.18,4.6-10.47,22.13-20.15,30.25-27.42,22.98-4.81-4.81-7.03-22.5-5.84-46.55.23-4.71.36-8.63.29-8.71-.18-.18-2.3.29-17.65,3.93-1.76.42-4.73,1.1-6.6,1.52-5.6,1.26-17.22,4-18.76,4.43-.79.22-4.77,1.14-8.84,2.04-4.07.9-8.93,1.98-10.8,2.41-1.87.42-4.93,1.11-6.8,1.53-1.87.42-5.38,1.23-7.8,1.81-2.42.58-5.57,1.3-7,1.62s-4.58,1.03-7,1.6c-2.42.57-6.38,1.48-8.8,2.04-2.42.56-5.93,1.37-7.8,1.8-1.87.43-4.93,1.13-6.8,1.54-1.87.41-5.47,1.23-8,1.8-2.53.58-6.27,1.35-8.31,1.72-4.59.83-4.62.74,1.31,5.18,8.51,6.37,13.36,11.49,15.61,16.46.56,1.23,1.19,2.56,1.41,2.94,2.97,5.36,2.06,16.96-2.01,25.7-.21.44-.85,1.97-1.43,3.4-1.05,2.61-6.99,14.62-10.18,20.6-4.06,7.62-4.98,9.33-6.22,11.6-2.89,5.3-4.9,9.36-4.72,9.54.11.11,1.21-.42,2.46-1.17,1.25-.75,3.97-2.37,6.06-3.6,3.81-2.23,4.5-2.65,10.8-6.57,14.36-8.93,17.02-10.51,20.4-12.13,15.78-7.54,30,.91,32.8,19.49.84,5.56.06,25.72-1.06,27.53-.11.17-.53,2.42-.95,5.01-.42,2.58-1.02,6.23-1.34,8.1-.72,4.18-.73,4.16,1.62,1.57,29.4-32.43,35.94-38.06,48.32-41.59,17.75-5.07,30.69,8.38,36.48,37.92.68,3.45,1.08,3.98,1.72,2.28,4.51-11.87,19.31-38.51,25.43-45.78,10.54-12.52,27.32-19.06,39.16-15.27,8.73,2.79,15.86,6.65,20.66,11.17l1.46,1.37.26-4.74c1.4-25.78,4.17-36.63,12.55-49.13,11.06-16.5,24.97-23.01,49.12-23.01,3.39,0,6.16-.16,6.16-.35s-.38-1.23-.84-2.3c-1.54-3.59-2.42-5.55-2.79-6.24-4.62-8.64-7.99-24.86-6.92-33.33,2.36-18.74,20.8-40.35,46.44-54.43,2.5-1.37,2.55-1.55.61-2.17-.83-.26-2.45-.91-3.61-1.43-1.16-.52-2.18-.95-2.27-.95s-1.47-.76-3.09-1.68c-18.79-10.74-23.46-26.44-15.38-51.65.69-2.16.95-2.04-2.36-1.04-.66.2-3.54.91-6.4,1.57-2.86.67-6.19,1.47-7.4,1.79-2.53.67-7.73,1.91-11.8,2.81-6.7,1.48-9.88,2.2-14.2,3.21-2.53.59-6.13,1.4-8,1.79-1.87.39-5.56,1.21-8.2,1.8-6.48,1.47-10.9,2.45-15.2,3.38-1.98.43-5.67,1.24-8.2,1.8-2.53.56-6.22,1.38-8.2,1.81-1.98.43-5.67,1.26-8.2,1.83-2.53.57-6.13,1.37-8,1.77-4.41.96-10.13,2.22-14.4,3.18-1.87.42-5.38,1.21-7.8,1.76-2.42.54-6.02,1.35-8,1.8s-6.93,1.54-11,2.44-8.12,1.81-9,2.03-2.86.66-4.4.98c-1.54.31-4.87,1.03-7.4,1.61-16.66,3.77-16.14,4.82-9.94-19.97,1.59-6.35,2.8-10.74,4.14-15.02,1.56-4.96,4.64-14,5.81-17,.68-1.76,1.4-3.65,1.59-4.2,3.21-9.32,11.39-23.8,16.35-28.93,6.67-6.9,11.64-4.73,15.38,6.73,3.74,11.46,5.12,21.68,5.18,38.5.02,5.34.16,9.7.32,9.7.47,0,8.91-1.83,19.37-4.19,2.64-.6,6.33-1.41,8.2-1.81,6.14-1.31,16.09-3.54,23.2-5.21,2.09-.49,5.24-1.21,7-1.6,1.76-.39,5.27-1.19,7.8-1.77,2.53-.58,6.13-1.4,8-1.82s5.47-1.23,8-1.82c6.49-1.5,10.84-2.47,15-3.35,8.57-1.81,20.22-4.46,28.38-6.45,1.75-.43,3.52-.78,3.95-.78.68,0,.71-.09.22-.76-16.19-22.57-16.52-36.67-1.58-68.19,2.41-5.09,2.45-4.93-.82-3.82-1.4.48-3.45,1.1-4.55,1.39-1.1.29-4.07,1.07-6.6,1.75-25.86,6.89-37.75,2.93-42.04-13.97-1.11-4.39-1.37-19.83-.45-26.4.56-3.95,1.72-15.3,1.58-15.43-.05-.05-2.37,1.83-5.15,4.17-10.95,9.23-14.56,11.87-22.72,16.61-13.74,7.98-27.89,9.31-37.82,3.55-5.81-3.37-9.91-7.54-15.42-15.7-2.9-4.29-2.67-3.92-6.94-11.44-5.34-9.42-4.69-8.64-5.53-6.66M216.15,47.64c.66.72,1.66,1.93,2.23,2.7,2.24,3.06,7.09,6.89,11.73,9.28,16.27,8.36,34.19,7.22,53.45-3.38,5.72-3.15,6.09-2.89,6.73,4.56.83,9.58,2.28,14.58,5.89,20.24,6.32,9.92,16.58,14.8,31.92,15.19,9.9.25,9.66,0,7.69,8.51-1.89,8.18-1.86,18.73.07,25.8,2.2,8.06,2.15,8.23-2.45,9.25-1.38.31-4.05.9-5.92,1.31-1.87.42-6.73,1.5-10.8,2.4-4.07.9-8.03,1.82-8.8,2.04-.77.22-4.37,1.03-8,1.79-3.63.76-7.23,1.56-8,1.77-.77.21-3.47.86-6,1.43-7.3,1.67-19.24,4.43-23.4,5.41-18.24,4.31-17.57,4.55-17.92-6.52-.95-30.71-13.88-52.06-29.51-48.72-11.66,2.49-26.23,21.36-36.14,46.83-.81,2.09-1.63,4.16-1.83,4.6-.35.81-1.64,4.89-3.15,10-1.35,4.57-4.35,16.22-4.81,18.72-.24,1.28-.53,2.48-.65,2.67-.56.9-4.77,24.26-6.2,34.4-.42,2.97-.93,6.54-1.12,7.95l-.36,2.54,1.44-.22c1.58-.24,15.17-3.2,22.44-4.88,2.53-.59,6.13-1.41,8-1.82,1.87-.41,4.93-1.1,6.8-1.52,4.99-1.13,12.51-2.81,16.4-3.65,1.87-.41,3.67-.84,4-.97.33-.13,1.95-.49,3.6-.81,3.16-.61,9.24-1.94,15.6-3.42,2.09-.49,5.33-1.21,7.2-1.61,3.3-.7,9.25-2.05,15.8-3.58,1.76-.41,5.18-1.21,7.6-1.77,2.42-.56,5.93-1.38,7.8-1.83s5.02-1.15,7-1.57c1.98-.42,5.67-1.25,8.2-1.84s6.13-1.41,8-1.83,4.93-1.1,6.8-1.52c1.87-.42,5.56-1.25,8.2-1.83,5.68-1.26,10.73-2.39,15.4-3.45,13.48-3.08,12.46-3.46,13.02,4.84.86,12.9,3.87,19.79,13.05,29.93,3.04,3.35,2.88,3.89-2.37,8.48-13.83,12.09-24.33,25.4-27.31,34.65-.27.85-.63,1.72-.8,1.94-.78,1.03-2.48,8.77-2.88,13.11-.7,7.65.24,14.86,3.29,25.21.98,3.33-.16,4.73-4.4,5.43-15.48,2.55-26.43,9.14-36.95,22.24-7.93,9.87-14.6,26.38-15.34,37.92-.3,4.77-1.87,5.36-8.31,3.12-8.6-2.98-14.96-2.95-25.05.12-15.71,4.79-30.67,17.69-37.96,32.72-2.6,5.36-4.12,5.98-6.92,2.82-8.02-9.04-11.48-11.76-19.08-15.03-11.64-5.01-29.43.54-44.1,13.75-4.76,4.28-7.5,4.14-7.5-.4-.02-12.02-9.74-28.55-19.6-33.35-8.09-3.93-17.95-4.13-26.1-.51-5.11,2.27-6.94-.37-4.35-6.24,5.68-12.83,5.84-23.9.49-34.12-.85-1.62-2.19-3.8-2.99-4.84-3.73-4.89-2.05-5.68,24.15-11.39,3.72-.81,8.22-1.84,13.8-3.17,4.58-1.08,11.43-2.66,15.8-3.63,3.09-.69,5.96-1.36,15.4-3.59,1.76-.42,5.27-1.23,7.8-1.82,2.53-.58,5.68-1.31,7-1.61,6.1-1.4,6.44-.85,7.2,11.62,1.59,26.3,5.99,37.92,16.2,42.75,14.57,6.9,38.23-15.77,49.4-47.35,1.77-5.01,7.82-23.31,8.4-25.4,2.49-9.06,5.17-21.09,7.21-32.4,1.63-8.99,2.24-12.24,2.96-15.6.93-4.36,1.19-4.1-3.06-3.08-4.22,1.02-10.21,2.41-16.71,3.88-2.64.6-5.34,1.24-6,1.44-.66.19-2.91.72-5,1.16-3.68.79-5.26,1.16-14.6,3.42-2.42.59-5.93,1.41-7.8,1.83-9.67,2.18-12.88,2.91-22.6,5.16-1.76.41-5.18,1.19-7.6,1.75-4.1.94-6.14,1.42-15,3.51-1.87.44-5.29,1.23-7.6,1.75s-5.82,1.33-7.8,1.8c-1.98.47-5.04,1.18-6.8,1.58s-4.73,1.08-6.6,1.53c-10.83,2.56-12.89,3.04-15.8,3.68-1.76.39-5.27,1.19-7.8,1.78-2.53.59-6.13,1.41-8,1.83-1.87.42-4.93,1.12-6.8,1.58-16.53,4-22.41,4.84-23.65,3.35-.42-.51-.52-2.06-.42-6.9.11-5.22-.01-6.93-.75-10.44-2.14-10.29-7.99-20-15.27-25.38-2.84-2.1-2.42-3.37,2.12-6.42,8.99-6.03,19.58-16.52,24.94-24.71,8.59-13.11,11.81-33.98,7.44-48.08-.21-.67-.78-2.45-1.28-3.95l-.91-2.74,1.22-1.09c1.01-.9,1.97-1.21,5.59-1.79,13.25-2.14,25.74-8.47,35.91-18.2,6.24-5.97,12.44-15.22,16.65-24.84,3.05-6.96,4-9.27,5.62-13.6,1.78-4.76,1.01-4.4,9.35-4.36,11.9.06,18.64-1.43,31.46-6.97,12.95-5.59,27.62-18.55,33.81-29.87,1.81-3.3,3.53-3.76,5.62-1.5"/>
    <path id="path4" class="cls-3" d="M212.4.23c1.12.17,3.11,2.17,3.11,3.12,0,.3.17.65.38.78.71.44-.42-2.11-1.39-3.16-.63-.68-1.33-1.01-2.07-.97l-1.12.06,1.09.16M208.55,4.61c-.36,1.05-.49,1.73-.3,1.52.44-.49,1.31-3.06,1.11-3.27-.09-.09-.45.7-.81,1.75M216.47,5.09c.12.19.4.84.63,1.46.23.61.52,1.01.64.89.24-.24-.93-2.69-1.28-2.69-.12,0-.12.15,0,.34M206.75,9.19c-.25.71-.38,1.36-.29,1.44.09.09.36-.42.6-1.13.25-.71.38-1.36.29-1.44-.09-.09-.36.42-.6,1.13M218.71,9.54c.45.88.91,1.6,1.02,1.6s-.17-.72-.62-1.6-.91-1.6-1.02-1.6.17.72.62,1.6M311.11,8.76c-.45.3-.33.34.46.16,2.18-.51,2.87.38,2.63,3.36-.12,1.56-.08,2.25.11,1.66,1.19-3.75-.73-6.86-3.2-5.18M219.91,11.74c0,.22.36.94.8,1.6.44.66.79,1.02.79.8s-.36-.94-.79-1.6c-.44-.66-.8-1.02-.8-.8M204.98,13.61c-.36.92-.59,1.74-.51,1.82.08.08.45-.6.81-1.52.37-.92.6-1.74.51-1.82s-.45.6-.81,1.52M222.11,15.94c.34.66.71,1.2.82,1.2s-.08-.54-.42-1.2c-.34-.66-.71-1.2-.82-1.2s.08.54.42,1.2M203.31,17.4c-.34.8-.52,1.55-.4,1.67.11.11.21.11.21-.01s.27-.87.6-1.67c.33-.8.52-1.45.41-1.45s-.48.66-.81,1.46M298.5,20.46c-1.55,1.37-3.71,3.27-4.8,4.23-1.09.96-1.72,1.6-1.39,1.43.71-.37,9.2-7.76,9.2-8.01,0-.3-.17-.16-3.01,2.35M313.01,19.14c-.14.77-.35,2.48-.46,3.8-.18,2.19-.15,2.12.38-.8.32-1.76.52-3.47.46-3.8-.07-.33-.24.03-.38.8M224.11,19.31c.38.64,1.05,1.77,1.49,2.5.43.73.87,1.33.97,1.33.28,0-1.39-2.86-2.33-4l-.83-1,.7,1.17M201.57,21.36c-.67,1.47-.54,1.78.18.45.34-.62.54-1.21.45-1.3-.09-.09-.38.29-.63.85M228.31,25.94c.9,1.32,1.72,2.4,1.84,2.4.26,0-.05-.51-1.76-2.9-1.95-2.73-2.01-2.35-.08.5M199.89,25c-.22.58-.51,1.24-.65,1.46-.14.22-.06.29.17.14.44-.27,1.4-2.66,1.07-2.66-.1,0-.37.48-.59,1.06M198.3,28.24c-.84,1.69-.85,1.7-.62,1.7.3,0,1.53-2.44,1.33-2.64-.09-.09-.41.33-.71.94M287.11,29.79c-2.57,2.01-2.94,2.51-.68.93,1.68-1.18,3.07-2.42,2.63-2.36-.08.01-.96.65-1.95,1.43M231.53,30.51c.75,1.05,1.54,2.01,1.75,2.14.21.13-.23-.62-.98-1.67-.75-1.05-1.54-2.01-1.75-2.14-.21-.13.23.62.98,1.67M311.36,30.22c-.12.84-.33,2.61-.46,3.93-.13,1.32-.33,3.12-.46,4-.12.88-.11,1.48.04,1.34.3-.28,1.49-10.41,1.25-10.65-.08-.08-.25.54-.38,1.38M279.71,35c-1.1.77-2.18,1.59-2.4,1.82-.5.52,2.85-1.53,4.15-2.54,1.67-1.29.33-.75-1.75.72M194.5,35.24l-.63,1.3.82-.94c.45-.52.82-1.1.82-1.3,0-.7-.39-.33-1.01.94M304.4,37.54c0,.77.08,1.08.18.7.1-.38.1-1.01,0-1.4-.1-.38-.18-.07-.18.7M192.28,38.84c-1.92,2.98-2.15,3.46-1.04,2.15,1.01-1.18,2.85-4.25,2.56-4.25-.09,0-.77.94-1.52,2.1M275.11,37.98l-1,.81,1.3-.63c.72-.35,1.3-.72,1.3-.82,0-.4-.64-.14-1.6.64M272.21,39.37c-.61.33-1.1.66-1.1.75,0,.34,1.61-.31,2.04-.82.57-.69.45-.68-.94.07M239.51,39.32c0,.27,3.63,2.72,3.8,2.56.08-.08-.75-.73-1.83-1.44-1.08-.72-1.97-1.22-1.97-1.12M231.91,40.94c.75.77,1.45,1.4,1.56,1.4s-.41-.63-1.16-1.4-1.45-1.4-1.56-1.4.41.63,1.16,1.4M304.02,41.34c0,1.1.08,1.5.17.9.09-.61.09-1.51,0-2-.1-.49-.17,0-.17,1.1M268.11,41.36c-1,.48-1.03.54-.2.33,1.13-.28,2.41-.93,1.8-.92-.22,0-.94.27-1.6.58M244.71,42.59c0,.09.4.32.9.5,1.38.51,3.33.94,3.07.68-.31-.31-3.97-1.4-3.97-1.19M263.2,42.92c-1.16.28-2.24.65-2.4.82-.16.17.07.2.51.08s1.48-.35,2.3-.49c.83-.15,1.6-.43,1.72-.62.12-.2.16-.34.1-.32-.07.02-1.07.26-2.24.55M310,43.54c0,.77.08,1.08.18.7.1-.38.1-1.01,0-1.4-.1-.38-.18-.07-.18.7M253.02,44.64c.94.08,2.38.08,3.2,0,.82-.09.05-.15-1.71-.15-1.76,0-2.43.07-1.49.16M303.6,46.34c0,.77.08,1.09.18.7.1-.38.1-1.01,0-1.4-.1-.39-.18-.07-.18.7M309.68,52.34c0,4.07.06,5.74.13,3.7s.07-5.36,0-7.4-.13-.37-.13,3.7M182.71,50.45c-2.31,2.25-3.66,3.69-3,3.22,1.21-.88,7.74-7.34,7.39-7.31-.1,0-2.08,1.85-4.39,4.1M246.71,49.93c.33.22.94.41,1.37.41,1.02,0,.7-.22-.77-.55-.88-.2-1.04-.16-.6.14M190.09,52.04l-1.58,1.7,1.7-1.58c1.58-1.47,1.88-1.82,1.58-1.82-.07,0-.83.77-1.7,1.7M174.61,56.71c-1.6,1.03-1.89,1.44-.5.7,1.68-.89,2.47-1.46,2-1.43-.22.01-.9.34-1.5.73M171.41,58.57c-1.5.81-1.4,1.15.1.37.66-.34,1.2-.71,1.2-.81,0-.26-.04-.24-1.3.44M290.03,60.34c0,1.21.07,1.71.17,1.1.09-.6.09-1.6,0-2.2-.09-.6-.17-.11-.17,1.1M166.91,60.75c-.89.44-1.16.68-.6.54,1.17-.29,3.19-1.31,2.6-1.32-.22,0-1.12.35-2,.78M121.67,61.24l-.76.9.88-.75c.67-.56,1.25-.69,2.4-.51,1.07.17,1.28.13.72-.12-1.36-.62-2.44-.46-3.24.48M200.09,62.84l-1.99,2.1,2.1-1.99c1.95-1.84,2.28-2.21,1.99-2.21-.06,0-1.01.94-2.1,2.1M127.54,61.91c.72.46,4.07,1.27,4.29,1.04.13-.13-1.17-.53-4.13-1.25-.67-.16-.69-.13-.17.21M162.78,62.22c-.95.34-1.65.68-1.57.77.18.18,3.89-1.04,3.89-1.28s-.46-.15-2.32.51M310.51,63.74c.44,1.96,1.07,3.86,1.22,3.71.19-.19-.9-4.32-1.23-4.65-.14-.14-.14.28.01.94M158.51,63.54c-.66.18-1.89.44-2.74.59-.85.14-1.46.34-1.37.44.24.24,4.78-.62,5.51-1.05.72-.42.22-.42-1.4.02M134.51,63.91c.44.18,1.7.42,2.8.55l2,.23-2-.53c-1.1-.29-2.36-.54-2.8-.55h-.8s.8.31.8.31M290.4,64.74c0,.77.08,1.08.18.7.1-.38.1-1.01,0-1.4-.1-.39-.18-.07-.18.7M119.91,67.54c-.28,1.78-.41,3.32-.3,3.43s.42-1.26.68-3.05.4-3.34.3-3.43c-.1-.1-.4,1.28-.68,3.05M146.41,65.42c.38.1,1.01.1,1.4,0,.39-.1.07-.18-.7-.18s-1.09.08-.7.18M366.51,65.92c-1.92.91-1.68,1.07.34.22,1.75-.73,3.51-.77,4.26-.1.48.42.48.4.03-.2-.69-.91-2.6-.88-4.63.08M362.51,67.55c-.89.44-1.16.68-.6.54,1.17-.29,3.19-1.31,2.6-1.32-.22,0-1.12.35-2,.78M312.19,68.74c.51,1.94,4.55,5.55,6.92,6.18.55.15.13-.18-.94-.72-2.4-1.21-4.1-2.79-5.11-4.76-.85-1.65-1.19-1.93-.87-.7M358.18,69.02c-1.06.33-1.86.66-1.78.75.23.23,3.25-.64,3.69-1.06.44-.42.55-.44-1.91.31M130.51,69.14c.44.19,1.07.34,1.4.34.38,0,.3-.13-.2-.34-.44-.19-1.07-.34-1.4-.34-.38,0-.3.13.2.34M370.42,70.04c-.74.95-.96,1.5-.6,1.5.2,0,.57-.45.82-1,.49-1.08.4-1.3-.22-.5M351.77,71c-1.07.33-1.87.67-1.78.76.09.09,1.23-.18,2.54-.59,1.31-.41,2.11-.75,1.78-.76-.33,0-1.47.26-2.54.59M140.41,71.03c.6.09,1.6.09,2.2,0,.6-.09.11-.17-1.1-.17s-1.7.07-1.1.17M151.81,71.03c.5.1,1.31.1,1.8,0,.49-.1.09-.17-.9-.17s-1.4.08-.9.17M146.01,71.43c.61.09,1.6.09,2.2,0,.6-.09.11-.17-1.1-.17s-1.71.08-1.1.17M346.58,72.55c-1.06.29-2.05.66-2.2.81-.15.16.09.18.53.06.44-.12,1.57-.42,2.5-.66.93-.24,1.7-.52,1.7-.62,0-.25-.27-.2-2.53.42M118.52,74.44c-.69,3.05-.95,4.5-.82,4.63.16.16.77-2.07,1.15-4.23.26-1.46-.02-1.79-.34-.4M338.75,74.38c-.97.19-1.86.45-1.98.57-.27.27,2.87-.19,4.34-.64,1.41-.43-.07-.39-2.36.06M324.77,76.07c1.34.21,3.29.21,4.8,0,2.36-.34,2.2-.37-2.26-.36-4.26,0-4.55.05-2.54.36M366.51,76.74c-.34.66-.53,1.2-.42,1.2s.48-.54.82-1.2c.34-.66.53-1.2.42-1.2s-.48.54-.82,1.2M364.91,79.54c-.34.66-.53,1.2-.42,1.2s.48-.54.82-1.2c.34-.66.53-1.2.42-1.2s-.48.54-.82,1.2M116.38,82.82c-.24.94-.36,1.77-.28,1.85.08.08.36-.6.61-1.53.25-.92.37-1.76.28-1.86-.1-.1-.37.59-.61,1.53M363.11,82.95c-.23.61-.52,1.27-.63,1.46-.12.19-.12.34,0,.34.35,0,1.51-2.46,1.27-2.69-.12-.12-.41.28-.64.9M299.91,86.14c.75.77,1.45,1.4,1.56,1.4s-.41-.63-1.16-1.4c-.75-.77-1.45-1.4-1.56-1.4s.41.63,1.16,1.4M361.75,85.89c-.44.72-1.07,2.64-.74,2.26.44-.51,1.34-2.6,1.12-2.6-.09,0-.26.15-.38.34M143.41,86.23c.71.09,1.88.09,2.6,0,.72-.09.13-.16-1.3-.16s-2.01.07-1.3.16M149.01,86.23c.5.1,1.31.1,1.8,0,.5-.1.09-.17-.9-.17s-1.4.08-.9.17M114.7,87.77c-.42,1.11-.52,2.04-.18,1.69.3-.3.97-2.72.75-2.72-.1,0-.36.46-.57,1.03M360.31,88.83c0,.12-.27.87-.61,1.67s-.5,1.45-.38,1.45c.35,0,1.46-2.86,1.21-3.11-.12-.12-.22-.12-.22,0M112.91,92.6c-.34.8-.52,1.55-.41,1.67.11.11.21.11.21-.01s.27-.87.61-1.67c.33-.8.52-1.45.41-1.45s-.47.66-.81,1.46M357.76,95.39c-.35,1.04-.57,1.96-.49,2.04.08.08.44-.7.8-1.74.35-1.04.57-1.96.49-2.04-.08-.08-.44.7-.8,1.74M110.19,98.56c-.81,1.64-1.39,2.99-1.29,2.99.27,0,3.09-5.65,2.91-5.83-.08-.08-.81,1.2-1.62,2.84M356.31,99.6c-.25.96-.55,2.1-.67,2.54-.12.44-.1.68.05.54.35-.33,1.45-4.45,1.24-4.66-.09-.09-.36.62-.61,1.58M217.61,100.23c.6.09,1.6.09,2.2,0,.6-.09.11-.17-1.1-.17s-1.71.07-1.1.17M107.72,102.98c-.37.57-.59,1.13-.47,1.24.11.11.49-.35.84-1.04.78-1.5.56-1.62-.37-.2M354.77,105c-.58,2.29-.97,4.77-.71,4.52.29-.29,1.43-5.72,1.24-5.91-.08-.08-.32.55-.53,1.4M230.31,105.74c.75.77,1.45,1.4,1.56,1.4s-.41-.63-1.16-1.4c-.75-.77-1.45-1.4-1.56-1.4s.41.63,1.16,1.4M105.91,105.95c-.24.44-1.24,1.84-2.23,3.1l-1.8,2.29,1.72-1.88c1.67-1.82,3.38-4.32,2.96-4.32-.11,0-.4.36-.64.81M100.41,112.73c-.55.88-7.32,6.61-8.16,6.91-.3.11-.44.3-.32.44.12.14,1.65-.9,3.4-2.29,3.4-2.72,6.59-5.84,5.95-5.84-.21,0-.61.35-.88.79M348,113.14c0,.77.08,1.08.18.7.1-.39.1-1.01,0-1.4-.1-.38-.18-.07-.18.7M237.54,116.14c0,.22.26.85.57,1.4.31.55.57.82.57.6s-.26-.85-.57-1.4-.57-.82-.57-.6M103.51,118.14c-.97.99-1.68,1.8-1.57,1.8s1-.81,1.97-1.8,1.68-1.8,1.57-1.8-.99.81-1.97,1.8M89.41,121.37c-1.5.81-1.4,1.15.1.37.66-.34,1.2-.71,1.2-.81,0-.26-.04-.24-1.3.44M209.51,122.94c-.97.99-1.68,1.8-1.57,1.8s1-.81,1.97-1.8c.97-.99,1.68-1.8,1.57-1.8s-1,.81-1.97,1.8M86.31,123.14c-.77.42-1.26.77-1.08.78.42.02,2.68-1.15,2.68-1.39,0-.26-.02-.25-1.6.61M354.13,124.54c.32,1.77.87,3.4,1.13,3.4.21,0-.94-4.52-1.22-4.8-.11-.11-.07.52.09,1.4M82.11,124.96l-1.2.58,1.2-.23c.66-.13,1.37-.4,1.58-.6.56-.55-.18-.43-1.58.25M214.07,126.84c-1.1,1.15-2.26,2.46-2.56,2.9-.3.44.58-.41,1.95-1.9,2.71-2.93,3.27-3.17,4.22-1.81.34.49.62.7.62.46,0-.51-1.31-1.75-1.85-1.75-.21,0-1.29.94-2.39,2.1M77.31,126.59l-1.6.56,1.6-.23c.88-.13,1.77-.4,1.98-.6.5-.49,0-.42-1.98.27M114.08,128.44l-1.17,1.3,1.3-1.18c1.21-1.1,1.48-1.43,1.18-1.43-.07,0-.65.59-1.3,1.3M218.73,128.24c.22.6.49,1.35.6,1.66.11.31.29.47.39.36.21-.21-.91-3.12-1.21-3.12-.1,0,0,.5.22,1.1M72.51,127.81c-.44.1-1.76.36-2.93.59-1.17.23-2.06.49-1.97.57.23.23,5.2-.67,5.9-1.07.63-.35.33-.38-1-.1M356.12,130.22c.63,1.5.99,2.08.99,1.57s-1.15-3.05-1.39-3.05c-.12,0,.05.67.39,1.48M53.15,129.99c-8.61.41-9.7,1.1-7.82,4.95.32.66.48.84.35.4-1.3-4.33-1.12-4.46,6.94-4.79,5.99-.24,12.92-.95,8.89-.91-.77,0-4.53.16-8.36.35M220.54,133.14c.14.77.43,1.67.63,2,.25.4.28.13.11-.8-.14-.77-.43-1.67-.63-2-.25-.4-.28-.13-.11.8M357.71,133.54c.34.66.71,1.2.82,1.2s-.08-.54-.42-1.2-.71-1.2-.82-1.2.08.54.42,1.2M208.52,134.18c-.37.57-.59,1.13-.48,1.24.11.11.49-.35.84-1.04.78-1.5.56-1.62-.37-.2M64.01,135.42c.39.1,1.01.1,1.4,0,.38-.1.07-.18-.7-.18s-1.08.08-.7.18M359.06,135.74c.22.44.68,1.16,1.04,1.6l.65.8-.39-.8c-.22-.44-.68-1.16-1.04-1.6l-.65-.8.39.8M337.2,136.74c0,.77.08,1.09.18.7.1-.38.1-1.01,0-1.4-.1-.39-.18-.07-.18.7M206.59,137.75c-.37.77-.58,1.39-.48,1.39.27,0,1.49-2.45,1.3-2.63-.09-.09-.46.47-.82,1.24M46.58,138.14c.13.66.49,1.65.8,2.2l.56,1-.26-1c-.15-.55-.5-1.54-.8-2.2l-.53-1.2.24,1.2M222.08,139.04c.13.6.41,2.16.62,3.46.21,1.29.49,2.46.63,2.6.14.14.13-.47-.02-1.35-.59-3.57-1.08-5.8-1.27-5.8-.11,0-.1.5.04,1.1M360.96,138.84c1.19,2,8.15,10.39,8.15,9.81,0-.16-1.01-1.42-2.25-2.8-1.24-1.38-3.05-3.64-4.04-5.01-1.57-2.19-2.7-3.41-1.87-2M48.44,143.46c.26.9.6,1.75.76,1.9.39.4-.5-2.75-.9-3.18-.18-.19-.12.38.14,1.27M203.17,144.56c-.67,1.47-.54,1.79.18.45.34-.62.54-1.21.45-1.3-.09-.09-.38.29-.63.85M50.16,148.34c.28,1.59.94,3.05.91,2-.01-.33-.27-1.23-.58-2l-.57-1.4.24,1.4M201.49,148.24c-.81,2.22-.83,2.31-.46,1.9.44-.47,1.32-3,1.05-3-.1,0-.37.5-.59,1.1M244.85,151.54c0,1.87.07,2.63.15,1.7s.08-2.46,0-3.4c-.08-.94-.15-.17-.15,1.7M290.71,149.14c-.82.26-.86.33-.2.35.44.02,1.07-.14,1.4-.35.7-.45.21-.45-1.2,0M224.17,153.98c.11,2.55.36,5.97.54,7.6.28,2.45.3,2.16.13-1.67-.11-2.55-.36-5.97-.54-7.6-.28-2.45-.3-2.16-.13,1.67M199.74,152.38c-.37.92-.59,1.74-.5,1.83.09.09.47-.58.83-1.5.37-.92.59-1.74.5-1.83-.09-.09-.47.58-.83,1.5M368.63,151.59c-.09.27-.79.72-1.54.99-1.01.37-1.15.51-.52.53.94.03,2.9-1.35,2.49-1.76-.14-.14-.33-.03-.42.24M51.79,153.74c.13.66.39,1.56.56,2l.31.8v-.8c.01-.44-.24-1.34-.55-2l-.57-1.2.24,1.2M360.2,154.13c-1.27.28-2.42.61-2.55.74-.33.33,2.54-.15,4.46-.75,2.06-.64,1.05-.64-1.91,0M351.57,156.02c-.95.21-1.66.46-1.57.56.18.18,4.8-.6,5.07-.87.28-.27-1.66-.1-3.5.31M197.97,156.79c-.79,2.1-.81,2.85-.03,1.22.45-.96.73-1.84.61-1.96-.12-.12-.38.21-.58.74M344.22,157.7c-1.26.27-2.43.64-2.6.82-.17.18.05.22.49.1.44-.13,1.52-.35,2.4-.5.88-.15,1.87-.42,2.2-.61.78-.44.29-.4-2.49.2M53.27,159.14c.12.55.41,2.06.63,3.36.39,2.23.83,3.46.8,2.2-.03-1.17-1.07-5.99-1.36-6.27-.16-.16-.19.15-.07.71M338.91,158.95c-.22.08-1.45.35-2.73.6-1.28.25-2.25.54-2.16.63.22.22,5.45-.87,5.78-1.2.26-.26-.22-.28-.89-.04M196.16,161.79c-.35,1.04-.57,1.96-.49,2.04.09.08.44-.7.8-1.74.35-1.04.57-1.96.49-2.04-.08-.08-.44.7-.8,1.74M331.71,160.55c-.22.08-1.45.35-2.73.6-1.28.25-2.25.54-2.16.63.22.22,5.45-.87,5.78-1.2.26-.26-.22-.28-.89-.04M320.91,162.96l-2,.54,2-.22c1.9-.21,4.08-.96,2.6-.89-.33.01-1.5.27-2.6.57M362,162.92c-1.16.28-2.24.64-2.4.8-.16.16.25.16.91.01,2.86-.65,4.2-1.04,4.2-1.21,0-.24-.21-.21-2.71.39M315.71,164.13c-.22.07-1.45.34-2.73.6-1.28.26-2.25.56-2.16.65.22.22,5.45-.87,5.78-1.2.25-.25-.18-.28-.89-.06M194.56,166.19c-.35,1.04-.57,1.96-.49,2.04.09.08.44-.7.8-1.74s.57-1.96.49-2.04c-.09-.08-.44.7-.8,1.74M353.71,164.96l-2,.54,1.8-.23c.99-.13,2.16-.38,2.6-.55,1.25-.5-.16-.36-2.4.24M230.85,167.94c0,1.87.07,2.64.15,1.7.08-.93.08-2.46,0-3.4s-.15-.17-.15,1.7M308.51,165.75c-.22.08-1.45.35-2.73.6-1.28.25-2.25.54-2.16.63.22.22,5.45-.87,5.78-1.2.26-.26-.22-.28-.89-.04M368.44,166.24c-.14.38-.32.88-.42,1.1-.09.22.11.05.46-.38.63-.78.82-1.42.42-1.42-.12,0-.32.32-.46.7M346.6,166.53c-1.27.28-2.44.64-2.6.81-.16.17.07.2.51.08.44-.12,1.83-.43,3.1-.68,1.27-.25,2.3-.53,2.3-.63,0-.24-.68-.16-3.31.42M297.71,168.16l-2,.54,1.8-.22c.99-.12,2.07-.38,2.4-.57.81-.47.18-.39-2.2.25M338.11,168.55l-1.6.54,1.6-.24c.88-.13,2.05-.38,2.6-.54l1-.3h-1c-.55,0-1.72.24-2.6.54M55.2,172.99c-.05,2.67-.17,5.46-.28,6.2l-.2,1.35.41-1.3c.23-.72.35-3.51.28-6.2l-.13-4.9-.09,4.85M366.54,170.38c-.37.92-.59,1.74-.5,1.83.09.09.47-.58.83-1.5.37-.92.59-1.74.5-1.83-.09-.09-.47.58-.83,1.5M290.41,169.71c-2.14.42-3.82,1.06-2.67,1.01.86-.03,5.43-1.12,5.65-1.34.3-.31.1-.28-2.99.33M331.55,169.98c-.97.19-1.87.46-2,.6-.3.32,3.06-.22,4.15-.66,1.02-.41.12-.39-2.15.06M192.71,171.94c-.25.92-.37,1.76-.28,1.85.1.1.37-.59.61-1.53.24-.94.36-1.77.28-1.85-.08-.09-.36.6-.61,1.53M75.22,172.34c0,.99.08,1.39.17.9.1-.49.1-1.3,0-1.8-.1-.49-.17-.09-.17.9M281.73,171.59c-2.23.52-2.38.9-.22.55,1.85-.3,3.64-1.01,2.4-.95-.33.02-1.31.2-2.18.4M324,171.72c-2.38.58-3.36,1.17-1.26.76,1.91-.37,4.7-1.26,3.97-1.27-.33,0-1.55.22-2.71.51M224.36,177.51c-.7,6.78.04,7.75,4.88,6.4,2.13-.59,1.67-.8-.67-.3-4.04.86-4.45.25-3.83-5.68.25-2.37.38-4.54.29-4.81s-.39,1.71-.67,4.4M276.11,172.95c-.22.08-1.45.35-2.73.6-1.28.25-2.25.54-2.16.63.22.22,5.45-.87,5.78-1.2.26-.26-.22-.28-.89-.04M317,173.33c-2.64.58-3.71,1.24-1.29.79,1.99-.37,5.01-1.3,4.2-1.3-.33,0-1.64.23-2.91.51M364.75,175.38c-.54,1.97-.26,2.25.36.36.26-.8.39-1.55.27-1.66s-.4.47-.63,1.3M267.21,174.91c-2.14.42-3.82,1.06-2.67,1.01.86-.03,5.43-1.12,5.65-1.34.3-.31.1-.28-2.99.33M308.22,175.3c-1.26.27-2.43.64-2.6.82-.17.18.05.22.49.1.44-.12,1.83-.43,3.1-.68,1.26-.25,2.3-.53,2.3-.63,0-.25-.72-.17-3.29.39M191.11,177.2c-.25.96-.55,2.1-.68,2.54-.12.44-.1.68.05.54.35-.33,1.44-4.45,1.24-4.66-.09-.09-.36.62-.61,1.58M258.93,176.79c-2.21.52-2.34.84-.21.51,1.82-.28,3.64-.97,2.39-.91-.33.02-1.31.2-2.18.4M301,176.93c-1.27.28-2.42.61-2.55.74-.33.33,2.54-.15,4.46-.75,2.06-.64,1.05-.64-1.91.01M74.8,178.34c0,.77.08,1.08.18.7.1-.39.1-1.01,0-1.4-.1-.38-.18-.07-.18.7M251.4,178.53c-1.27.28-2.44.64-2.6.81-.16.17.07.2.51.07.44-.13,1.52-.35,2.4-.5.88-.15,1.87-.42,2.2-.61.77-.43.32-.39-2.51.23M294.01,178.51c-1.37.27-2.63.64-2.8.81-.17.18.06.22.5.1s1.61-.34,2.6-.49c.99-.15,2.07-.43,2.4-.62.76-.43.39-.4-2.7.2M363.35,180.71c-.65,3.38-.71,3.81-.49,3.6.32-.3,1.11-4.45.89-4.66-.09-.09-.27.39-.4,1.06M242.77,180.42c-.96.21-1.66.46-1.57.56.09.09,1.32-.08,2.74-.39,1.41-.31,2.11-.56,1.56-.56-.55,0-1.78.18-2.74.39M285.31,180.56l-2,.54,1.8-.22c.99-.12,2.07-.38,2.4-.57.81-.46.18-.39-2.2.25M53.91,183.2c-.25.96-.54,2.05-.65,2.44-.11.39-.11.7.01.7.32,0,1.55-4.42,1.3-4.67-.12-.12-.41.57-.66,1.53M234.91,182.16l-2,.54,1.95-.21c2.17-.24,4.33-.91,2.85-.89-.44,0-1.7.26-2.8.56M278.31,182c-3.36.69-3.7.78-3.51.97.21.21,5.95-.93,6.25-1.24.26-.26-.6-.17-2.74.27M189.2,184.14c-.24,1.1-.37,2.06-.29,2.14.24.24,1.06-3.16.88-3.67-.09-.26-.36.43-.6,1.53M269.17,184.02c-.95.21-1.66.47-1.56.57.21.21,4.29-.62,4.29-.87,0-.23-.69-.15-2.74.31M261.64,185.7c-3.05.66-3.01,1.04.05.46,1.45-.27,2.74-.61,2.89-.76.33-.33-.35-.26-2.94.29M52.71,186.83c0,.12-.27.87-.6,1.67-.33.8-.5,1.45-.38,1.45.35,0,1.46-2.86,1.21-3.11-.12-.12-.22-.12-.22,0M254.41,187.31c-2.14.42-3.82,1.06-2.67,1.01.86-.03,5.43-1.12,5.65-1.34.3-.3.1-.28-2.99.33M187.51,190.94c-.26,1.25-.38,2.35-.27,2.46s.41-.82.67-2.06c.26-1.25.38-2.35.27-2.46-.11-.11-.41.82-.67,2.06M245.71,189.35l-1.6.54,1.6-.23c.88-.13,1.96-.38,2.4-.55l.8-.32h-.8c-.44,0-1.52.26-2.4.56M335.91,189.14c-.82.26-.86.33-.2.35.44.02,1.07-.14,1.4-.35.7-.45.21-.45-1.2,0M238.44,190.89c-3.05.67-3.01,1.05.05.47,1.45-.27,2.75-.61,2.89-.76.34-.35-.42-.27-2.94.28M50.46,192.04c-.37.71-1.19,2.11-1.84,3.1-1,1.54-1.02,1.63-.16.62,1.09-1.27,3.24-5.01,2.88-5.01-.12,0-.51.59-.88,1.3M231.21,192.51c-1.37.27-2.63.64-2.8.81-.17.18.06.22.5.1s1.61-.34,2.6-.49c.99-.15,2.07-.43,2.4-.62.76-.43.39-.4-2.7.2M222.51,194.56l-2,.54,1.95-.22c2.17-.24,4.33-.91,2.85-.89-.44,0-1.7.26-2.8.56M312.71,194.34c-.82.26-.86.33-.2.35.44.02,1.07-.14,1.4-.35.7-.45.21-.45-1.2,0M215.42,196.1c-1.26.27-2.43.64-2.6.82-.17.18.05.22.49.1.44-.12,1.84-.43,3.1-.68,1.26-.25,2.3-.53,2.3-.63,0-.25-.72-.17-3.29.39M344.01,196.94c0,.88.09,1.19.18.7.1-.5.09-1.22,0-1.6-.1-.38-.18.03-.17.9M185.93,198.02c-.84,3.82-.89,4.12-.61,3.84.34-.34,1.46-5.58,1.24-5.8-.09-.09-.37.79-.63,1.96M206.79,197.94c-.73.17-1.45.44-1.6.59-.29.3,2.21-.1,3.92-.62l1-.3h-1c-.55,0-1.59.15-2.32.33M43.51,201.65c-2.26,2.53-6.53,6.57-9,8.51q-.8.63.01.24c1.86-.89,8.76-7.5,11.03-10.55,1.38-1.86.67-1.24-2.04,1.81M362.98,199.74c.13.66.39,1.47.57,1.8.6,1.08.39-.45-.24-1.8l-.57-1.2.24,1.2M199.11,199.77l-2.2.54,1.95-.22c1.07-.12,2.33-.37,2.8-.56,1.24-.5-.03-.38-2.55.24M191.4,201.33c-1.27.28-2.44.64-2.6.81-.16.17.07.2.51.08.44-.12,1.84-.43,3.1-.68,1.26-.25,2.3-.53,2.3-.63,0-.24-.68-.16-3.31.42M364.58,203.85c.13.5.39,1,.58,1.12.55.34.41-.39-.23-1.25-.56-.75-.57-.74-.35.13M258.71,206.76c-.44.3-.28.33.6.14,1.47-.33,1.79-.56.77-.55-.42,0-1.04.19-1.37.41M366.92,207.74c1.47,2.12,3.62,4.38,5.59,5.9.96.74.55.21-1.03-1.33-1.45-1.41-3.32-3.38-4.15-4.37-1.45-1.72-1.47-1.73-.41-.2M31.38,212.6c-1.03.8-1.87,1.53-1.87,1.62,0,.22,3.61-2.37,3.86-2.77.36-.59-.13-.3-1.99,1.15M366.11,215.54c1.31,1.32,2.46,2.4,2.58,2.4s-.87-1.08-2.18-2.4c-1.31-1.32-2.46-2.4-2.57-2.4s.87,1.08,2.17,2.4M220.71,215.14c-.8.26-.84.32-.2.33.44,0,1.16-.14,1.6-.33,1.02-.44-.03-.44-1.4,0M374.48,215.1c.15.24.64.64,1.1.88.59.32.75.32.55,0-.15-.24-.64-.64-1.1-.88-.59-.32-.75-.32-.55,0M24.01,217.78c-2.27,1.53-2.86,2.26-.89,1.1,1.33-.78,3.51-2.5,3.19-2.51-.11,0-1.15.63-2.3,1.41M376.71,216.52c0,.11.54.48,1.2.82.66.34,1.2.53,1.2.42s-.54-.48-1.2-.82c-.66-.34-1.2-.53-1.2-.42M18.77,221.33c-2.65,1.69-3.2,2.24-1.06,1.06,1.62-.89,3.77-2.43,3.4-2.42-.11,0-1.16.62-2.34,1.37M384.31,220.51c.55.33,1.27.6,1.6.6.8,0-.15-.56-1.6-.94l-1-.26,1,.6M388.51,222.11c.66.29,1.74.64,2.4.77l1.2.24-1.2-.53c-.66-.29-1.74-.64-2.4-.77l-1.2-.24,1.2.53M14.51,223.94c-.66.44-1.02.79-.8.79.4,0,2.58-1.57,2.2-1.58-.11,0-.74.35-1.4.79M395.71,224.24c1.91.67,2,.77,2,2.16,0,.8.13,1.38.3,1.28,1.5-.93-.32-3.56-2.7-3.9-1.57-.23-1.56-.22.4.47M11.11,225.98l-1,.82,1.3-.63c.72-.35,1.3-.72,1.3-.82,0-.4-.64-.14-1.6.64M8.17,227.39c-.62.34-1.04.71-.92.83.12.12.81-.16,1.53-.62,1.52-.97,1.07-1.12-.62-.21M5.01,229.17c-.83.44-1.5.88-1.5.99s.72-.17,1.6-.62c.88-.45,1.6-.9,1.6-1.01q0-.26-1.7.63M395.51,229.14c-.77.42-1.26.77-1.08.78.42.02,2.68-1.15,2.68-1.39,0-.26-.02-.25-1.6.61M392.61,230.57c-1.49.81-1.4,1.15.1.37.66-.34,1.2-.71,1.2-.81,0-.26-.04-.24-1.3.44M1.06,231.48c-1.47,1.31-1.4,2.9.16,3.71l.89.46-.9-.87c-1.3-1.25-1.12-2.25.59-3.42.82-.56,1.27-1.01,1.01-1.01s-1.06.51-1.75,1.13M354.69,233.44l-1.38,1.5,1.5-1.38c1.4-1.28,1.68-1.62,1.38-1.62-.07,0-.74.68-1.5,1.5M389.01,232.57c-1.49.81-1.4,1.15.1.37.66-.34,1.2-.71,1.2-.81,0-.26-.04-.24-1.3.44M386.21,234.17c-1.49.81-1.4,1.15.1.37.66-.34,1.2-.71,1.2-.81,0-.26-.04-.24-1.3.44M383.41,235.77c-1.49.81-1.4,1.15.1.37.66-.34,1.2-.71,1.2-.81,0-.26-.04-.24-1.3.44M2.71,235.9c.33.18,1.14.44,1.8.57l1.2.24-1.2-.57c-1.35-.64-2.88-.84-1.8-.24M6.76,237.33c.34.34,3.15,1.43,3.15,1.22,0-.11-.65-.47-1.45-.81-1.48-.62-2.03-.75-1.7-.42M379,238.51c-2.18,1.51-3.07,2.35-1.32,1.26.64-.4,1.77-1.09,2.5-1.52s1.33-.86,1.33-.95c0-.38-.72-.03-2.51,1.21M10.31,238.97c0,.09.54.43,1.2.78.66.34,1.2.48,1.2.3s-.54-.53-1.2-.78c-.66-.25-1.2-.38-1.2-.3M13.69,240.71c.15.24.82.72,1.49,1.07.67.35,1.1.43.95.19-.15-.24-.82-.72-1.49-1.07-.67-.35-1.1-.43-.95-.19M16.71,242.47c0,.18,2.93,2.23,3.99,2.8.34.18.12-.1-.49-.61-1.19-1.02-3.51-2.46-3.51-2.19M371.71,243.58c-1.99,1.51-2.71,2.24-1.6,1.63.9-.49,3.71-2.84,3.4-2.84-.11,0-.92.55-1.8,1.21M363.58,250.38c-4.4,3.96-10.07,10.07-11.03,11.89-.47.9-.16.55,3.43-3.73,1.66-1.98,5.2-5.56,7.87-7.97,4.36-3.92,5.1-4.64,4.76-4.63-.05,0-2.32,2-5.03,4.44M23.91,247.58c0,.3,6.11,6.39,6.26,6.24.07-.07-1.32-1.55-3.07-3.29-1.75-1.74-3.19-3.07-3.19-2.95M193.71,248.34c-.5.22-.58.34-.2.34.33,0,.96-.15,1.4-.34.5-.22.58-.34.2-.34-.33,0-.96.15-1.4.34M31.09,255.64c.48.71,1.21,2.07,1.63,3,.89,1.99,1.46,2.32.65.37-.67-1.61-2.58-4.67-2.9-4.67-.13,0,.15.58.63,1.3M163.91,255.14c-.82.26-.86.33-.2.35.44.02,1.07-.14,1.4-.35.7-.45.21-.45-1.2,0M34.34,262.34c0,.33.26,1.14.57,1.8l.57,1.2-.24-1.2c-.3-1.5-.91-2.73-.9-1.8M219.11,262.38c-.87.31-.82.33.32.17,1.21-.17,1.31-.12,1.07.71-.2.7-.16.76.17.29,1-1.43.41-1.87-1.57-1.17M212.78,263.81c-1.39.33-2.45.68-2.36.77.23.23,4.32-.64,5.09-1.08.82-.46.25-.4-2.73.3M350.4,265.24c-1.46,2.16-1.78,2.7-1.56,2.7.15,0,1.76-2.24,2.8-3.89.83-1.32-.22-.31-1.23,1.19M205.11,265.64c-.99.23-1.62.47-1.4.55s1.39-.11,2.6-.41c2.55-.63,1.49-.75-1.2-.14M219.33,266.79c-.41,1.15-.94,4.01-.7,3.77.33-.33,1.25-3.97,1.05-4.17-.09-.09-.25.09-.35.4M198.11,267.36l-2,.54,1.8-.22c.99-.12,2.07-.38,2.4-.57.81-.46.18-.39-2.2.25M36.11,276.13c0,4.36.12,7.23.28,6.37.34-1.92.32-11.52-.02-13.13-.14-.64-.25,2.4-.25,6.76M193.31,268.55c-.22.08-1.45.35-2.73.6-1.28.25-2.25.54-2.16.63.22.22,5.45-.87,5.78-1.2.26-.26-.22-.28-.89-.04M347.71,269.54c-.34.66-.53,1.2-.42,1.2s.48-.54.82-1.2c.34-.66.53-1.2.42-1.2s-.48.54-.82,1.2M102.31,269.56c-.44.3-.28.33.6.14,1.47-.33,1.79-.56.77-.55-.42,0-1.04.19-1.37.41M41.67,276.34c0,3.41.06,4.8.14,3.1.08-1.71.08-4.5,0-6.2-.07-1.7-.14-.31-.14,3.1M182.93,270.79c-2.23.52-2.38.9-.22.55,1.85-.3,3.64-1.01,2.4-.95-.33.02-1.31.19-2.18.4M175.18,272.61c-1.39.33-2.45.68-2.36.77.22.22,5.45-.87,5.78-1.2.36-.36-.59-.24-3.42.43M345.71,273.4c-.34.8-.52,1.55-.4,1.67s.2.11.2-.01.27-.87.61-1.67c.33-.8.52-1.45.41-1.45s-.48.66-.81,1.46M149.31,272.74c-.5.22-.58.34-.2.34.33,0,.96-.15,1.4-.34.5-.22.58-.34.2-.34-.33,0-.96.15-1.4.34M217.15,274.18c-.23.83-.35,1.58-.27,1.66s.37-.51.63-1.3c.26-.8.39-1.55.27-1.66-.12-.12-.4.47-.63,1.3M168.6,274.13c-2.48.54-3.83,1.29-1.49.83,2.41-.48,4.4-1.04,4.4-1.23,0-.23-.07-.22-2.91.4M160.53,275.99c-2.22.52-2.38.9-.22.55,1.85-.3,3.64-1.01,2.4-.95-.33.02-1.31.2-2.18.4M344.1,277.73c-.36,1.25-.56,2.37-.44,2.49.12.12.33-.3.47-.93.14-.63.42-1.67.62-2.31.2-.64.29-1.24.19-1.34-.1-.1-.48.85-.84,2.1M153,277.73c-1.27.28-2.44.64-2.6.81-.16.17.07.2.51.07s1.52-.35,2.4-.5c.88-.15,1.87-.42,2.2-.61.77-.43.32-.39-2.51.23M215.38,280.21c-.36,1.26-.58,2.35-.49,2.44.08.08.45-.87.82-2.12.36-1.25.59-2.35.49-2.44-.09-.09-.46.86-.82,2.12M145.19,279.54c-1.27.3-2.2.81-1.45.8.2,0,1.27-.26,2.37-.56,2.1-.58,1.36-.77-.92-.23M137.71,281.38l-2,.54,2-.23c1.88-.22,4.11-.98,2.6-.89-.33.02-1.5.28-2.6.58M175.61,281.87c-.29.18.31.31,1.4.29l1.9-.02v3.4c0,1.87-.15,6.01-.33,9.2s-.24,5.7-.12,5.59c.56-.56,1.19-17.54.68-18.16-.55-.66-2.67-.84-3.52-.29M130.38,283.01c-1.39.33-2.45.68-2.35.78.21.21,5.88-1.03,5.88-1.28s-.79-.15-3.53.5M169.97,283.22c-.96.21-1.66.47-1.56.57.21.21,4.29-.62,4.29-.87,0-.23-.69-.15-2.74.31M214.14,283.99c-.52,1.54-.96,3.62-.72,3.38.38-.38,1.29-3.55,1.08-3.76-.1-.1-.26.08-.36.38M342.86,287.94c0,2.31.07,3.25.15,2.1.08-1.15.08-3.04,0-4.2-.08-1.15-.15-.21-.15,2.1M122.51,284.95l-1.6.55,1.6-.24c.88-.13,2.05-.38,2.6-.54l1-.3h-1c-.55,0-1.72.24-2.6.54M162.91,284.96l-2,.54,1.8-.22c.99-.12,2.07-.38,2.4-.57.81-.46.18-.39-2.2.25M323.23,287.74c0,1.32.08,1.81.17,1.09.09-.72.09-1.8,0-2.4-.09-.6-.16-.01-.16,1.31M115.71,286.56l-2,.54,1.8-.23c.99-.13,2.16-.38,2.6-.55,1.25-.5-.16-.36-2.4.24M156.2,286.53c-1.27.28-2.44.64-2.6.81-.16.17.07.2.51.07.44-.13,1.52-.35,2.4-.5.88-.15,1.87-.42,2.2-.61.77-.43.32-.39-2.51.23M108.6,288.13c-1.27.28-2.44.64-2.6.81-.16.17.07.2.51.07.44-.13,1.52-.35,2.4-.5.88-.15,1.87-.42,2.2-.61.77-.43.32-.39-2.51.23M34.71,290.12c-.26,1.23-.39,2.46-.3,2.73.09.27.37-.67.62-2.08.57-3.19.31-3.7-.33-.65M147.71,288.55l-1.6.54,1.6-.23c.88-.13,1.96-.38,2.4-.55l.8-.32h-.8c-.44,0-1.52.26-2.4.56M172.96,288.61c.25.18.55.69.67,1.13.17.63.2.6.15-.17-.04-.53-.34-1.04-.67-1.13-.4-.11-.45-.05-.15.17M212.15,290.21c-.35,1.03-.55,1.95-.45,2.06.21.21.74-1.1,1.16-2.82.42-1.75-.01-1.28-.71.77M100.11,290.15l-1.6.54,1.6-.24c.88-.13,2.05-.38,2.6-.54l1-.3h-1c-.55,0-1.72.24-2.6.54M140.8,290.12c-2.38.58-3.37,1.17-1.26.76,1.91-.37,4.7-1.26,3.97-1.27-.33,0-1.55.22-2.71.51M93.53,291.58c-2.59.51-2.94.8-.62.53,1.1-.13,2.27-.39,2.6-.59.71-.41.4-.4-1.98.06M134.04,291.69c-2.3.51-3.46,1.22-1.3.8,1.87-.36,4.71-1.26,3.97-1.26-.33,0-1.53.21-2.67.46M173.2,293.54c0,.77.08,1.09.18.7.1-.39.1-1.02,0-1.4-.1-.39-.18-.07-.18.7M85.8,293.33c-1.27.28-2.44.64-2.6.81-.16.17.07.2.51.07.44-.13,1.52-.35,2.4-.5s1.87-.42,2.2-.61c.77-.43.32-.39-2.51.23M125.31,293.76l-2,.54,1.8-.23c.99-.13,2.16-.38,2.6-.55,1.25-.5-.16-.36-2.4.24M210.3,295.6c-.26.96-.57,1.92-.68,2.14-.15.27-.08.27.19,0,.53-.52,1.45-3.39,1.17-3.67-.12-.12-.42.57-.68,1.53M77.51,295.24c-.99.23-1.62.47-1.4.55s1.39-.11,2.6-.41c2.55-.63,1.49-.75-1.2-.14M118.2,295.33c-1.27.28-2.44.64-2.6.81-.16.17.07.2.51.08.44-.12,1.83-.43,3.1-.68,1.26-.25,2.3-.53,2.3-.63,0-.24-.68-.16-3.31.42M33.18,296.6c-.78,3.1-.93,3.93-.65,3.66.35-.35,1.41-4.83,1.19-5.04-.09-.09-.33.54-.54,1.38M343.7,296.74c.48,2.41,1.06,4.49,1.21,4.34.18-.18-.99-5.27-1.27-5.54-.12-.11-.09.43.06,1.2M69.58,297.01c-1.39.33-2.46.68-2.36.77.22.22,5.45-.87,5.78-1.2.36-.36-.59-.24-3.42.43M42.11,297.14c-.5.22-.58.34-.2.34.33,0,.96-.15,1.4-.34.5-.22.58-.34.2-.34-.33,0-.96.15-1.4.34M109.97,297.2c-2.15.62-1.25.75,1.15.16,1.2-.29,1.74-.54,1.19-.54-.55,0-1.6.17-2.34.38M61.99,298.74c-.73.17-1.42.42-1.55.54-.27.27,2.4-.12,3.87-.57l1-.3h-1c-.55,0-1.59.15-2.32.33M102.51,298.96l-2,.54,1.95-.22c2.17-.24,4.33-.91,2.85-.89-.44,0-1.7.26-2.8.56M208.55,300.61c-.36,1.05-.49,1.73-.3,1.52.44-.49,1.31-3.06,1.11-3.27-.09-.09-.45.7-.81,1.75M54.31,300.46c-.99.23-1.53.48-1.2.55.33.07,1.59-.12,2.8-.43,1.21-.3,1.75-.55,1.2-.55-.55,0-1.81.19-2.8.43M95.4,300.53c-1.27.28-2.44.64-2.6.81-.16.17.07.2.51.08.44-.12,1.84-.43,3.1-.68s2.3-.53,2.3-.63c0-.24-.68-.16-3.31.42M48.91,301.73c-.22.07-1.45.34-2.73.6s-2.25.56-2.16.65c.22.22,5.45-.87,5.78-1.2.25-.25-.18-.28-.89-.06M31.56,302.79c-.03.58.26,1.3.65,1.6.61.48.64.47.24-.05-.25-.33-.54-1.05-.65-1.6l-.18-1-.06,1.05M87.11,302.44c-.99.23-1.62.47-1.4.55.22.07,1.39-.11,2.6-.41,2.55-.63,1.49-.75-1.2-.14M172.87,308.14c0,3.52.06,4.91.14,3.08.07-1.82.07-4.7,0-6.4s-.14-.2-.14,3.32M345.11,302.07c0,.49,1.29,4.32,1.41,4.2.19-.19-1-4.32-1.24-4.32-.09,0-.17.06-.17.13M39.91,303.6c-3.36.69-3.69.78-3.51.97.21.21,5.94-.93,6.25-1.24.26-.26-.6-.17-2.74.27M80.35,303.98c-.97.19-1.87.46-2,.6-.3.32,3.06-.22,4.15-.66,1.02-.41.12-.39-2.15.06M206.75,305.19c-.25.71-.38,1.36-.29,1.44.09.09.36-.42.6-1.13.25-.71.38-1.36.29-1.44-.09-.09-.36.42-.6,1.13M72.81,305.71c-1.37.27-2.63.63-2.8.81-.17.17.06.22.5.1.44-.12,1.61-.34,2.6-.49s2.07-.43,2.4-.62c.76-.43.39-.4-2.7.2M67.71,306.95c-.22.08-1.45.35-2.73.6-1.28.25-2.25.54-2.16.63.22.22,5.45-.87,5.78-1.2.26-.26-.22-.28-.89-.04M205.36,308.73c-.9,2.26-.76,2.59.19.45.43-.97.71-1.83.62-1.92s-.45.57-.81,1.47M347.28,308.66c.33.94.8,2.02,1.05,2.4.39.61.41.6.17-.11-.91-2.69-1.13-3.24-1.46-3.6-.2-.22-.09.37.24,1.31M57.53,309.18c-.98.19-1.97.44-2.2.56-.69.34,3.41-.23,4.33-.6,1.06-.43.18-.41-2.13.04M50.11,310.97l-2,.55,1.76-.2c.97-.11,2.05-.37,2.4-.57.85-.5.25-.43-2.16.23M134.71,311.16c-.44.3-.28.33.6.14,1.47-.33,1.79-.56.77-.55-.42,0-1.04.19-1.37.41M43.71,312.38c-3.2.72-3.49.8-3.31.99.22.22,5.07-.86,5.41-1.2.28-.28-.07-.24-2.11.21M349.18,313.16c.23.67.5,1.15.59,1.06.2-.2-.56-2.28-.83-2.28-.1,0,0,.55.24,1.22M203.17,313.76c-.67,1.47-.54,1.79.18.45.34-.62.54-1.21.45-1.3-.09-.09-.38.29-.63.85M159.64,315.54c0,1.43.07,2.02.16,1.3.09-.71.09-1.89,0-2.6-.09-.71-.16-.13-.16,1.3M34.51,314.53c-1.18.3-1.59.52-1,.53.55,0,1.72-.22,2.6-.51,2.05-.68,1.01-.69-1.6-.02M178.58,320.14c.12,3.3.36,6.99.52,8.2.5,3.68.4.04-.2-7.4l-.55-6.8.23,6M28.37,316c-.74.21-1.27.46-1.18.55.2.2,3.12-.58,3.12-.83,0-.23-.32-.19-1.94.28M350.99,317.34c.37.77.74,1.32.82,1.24.18-.18-1.03-2.63-1.3-2.63-.1,0,.12.63.48,1.39M160.01,319.74c0,.88.09,1.19.18.7.1-.5.09-1.22,0-1.6-.1-.38-.18.02-.17.9M352.54,320.74c.14.55.42,1.17.62,1.38.57.61.4-.27-.28-1.38l-.6-1,.26,1M32.11,322.95c.44.36,1.16.83,1.6,1.04l.8.39-.8-.65c-.44-.36-1.16-.83-1.6-1.04l-.8-.39.8.65M198.09,323.98c-.35.68-.57,1.31-.48,1.39.09.09.46-.47.82-1.24.82-1.72.54-1.86-.34-.16M354.36,324.73c.23.67.58,1.31.77,1.43.19.12.15-.33-.08-1-.23-.67-.58-1.31-.77-1.43-.19-.12-.15.33.08,1M335.01,325.83c.5.1,1.22.09,1.6,0,.38-.1-.02-.18-.9-.17-.88,0-1.19.09-.7.18M37.28,326.3c.15.24.64.64,1.1.88.59.32.75.32.56,0-.15-.24-.64-.64-1.1-.88-.59-.32-.75-.32-.56,0M196.11,327.54c-.34.66-.53,1.2-.42,1.2s.48-.54.82-1.2c.34-.66.53-1.2.42-1.2s-.48.54-.82,1.2M39.71,327.83c.48.49,4.94,4.06,5.8,4.63.33.22-.12-.25-1-1.04-1.55-1.4-5.61-4.43-4.8-3.58M49.91,328.87c0,.07.58.65,1.3,1.3l1.3,1.18-1.18-1.3c-1.09-1.21-1.42-1.48-1.42-1.17M289.29,331.64l-1.58,1.7,1.7-1.58c1.58-1.47,1.88-1.82,1.58-1.82-.07,0-.83.76-1.7,1.7M340.21,331.04c1.15.08,3.04.08,4.2,0,1.15-.08.21-.15-2.1-.15s-3.26.07-2.1.15M329.53,331.62c-1.64.2-3.26.55-3.6.77-.51.32-.47.36.18.2.44-.11,2.55-.41,4.7-.67,2.14-.26,3.9-.54,3.9-.62,0-.21-1.74-.11-5.18.33M53.91,332.94c.75.77,1.45,1.4,1.56,1.4s-.41-.63-1.16-1.4c-.75-.77-1.45-1.4-1.56-1.4s.41.63,1.16,1.4M192.46,333.24c-1.62,2.38-1.96,3.1-.87,1.81,1.02-1.19,2.46-3.51,2.19-3.51-.09,0-.69.76-1.32,1.69M321.71,333.36q-1.58.55-.2.32c.77-.13,1.67-.38,2-.57.88-.5.03-.38-1.8.25M180.17,334.34c.27,1.57.84,3.2,1.1,3.2.16,0-.76-3.38-1.15-4.2-.1-.22-.08.23.06,1M315.95,335.18c-.53.21-.87.47-.76.58.11.11.81-.07,1.56-.39,1.48-.64.76-.81-.8-.19M312.49,336.92c-.75.56-.74.57.13.35.5-.13,1-.39,1.12-.58.34-.55-.39-.41-1.25.23M188.69,338.24l-1.38,1.5,1.5-1.38c1.4-1.28,1.68-1.62,1.38-1.62-.07,0-.74.67-1.5,1.5M309.8,338.56c-.82.56-1.49,1.1-1.49,1.21s.72-.29,1.6-.87c1.4-.93,1.87-1.35,1.49-1.35-.06,0-.78.46-1.6,1.01M182.83,339.71c1.17,1.07,2.45,1.3,3.48.62.43-.28.21-.32-.73-.14-1.01.19-1.63.04-2.6-.63l-1.27-.88,1.12,1.03M53.55,341.32c.46.78.92,1.42,1.01,1.42.28,0-1.01-2.33-1.45-2.6-.22-.14-.02.39.44,1.17M305.26,342.1c-1.31,1.19-3.07,3.03-3.9,4.1-1.48,1.89-1.46,1.89.49-.26,1.1-1.21,2.96-3.05,4.13-4.1,1.17-1.04,2.02-1.9,1.89-1.9-.13,0-1.31.97-2.62,2.16M55.34,344.74c.14.55.42,1.17.62,1.38.57.61.4-.27-.28-1.38l-.6-1,.26,1M56.91,352.54c0,2.07.12,3.46.27,3.09.15-.38.27-1.77.27-3.09s-.12-2.71-.27-3.08c-.15-.38-.27,1.01-.27,3.08M202.89,351.64l-1.99,2.1,2.1-1.98c1.15-1.09,2.1-2.04,2.1-2.1,0-.3-.37.03-2.21,1.98M62.45,352.94c0,1.76.07,2.43.16,1.49.08-.94.08-2.38,0-3.2-.09-.82-.16-.05-.15,1.71M295.31,354.74c-.34.66-.53,1.2-.42,1.2s.48-.54.82-1.2.53-1.2.42-1.2-.48.54-.82,1.2M170.31,357.34c.75.77,1.45,1.4,1.56,1.4s-.41-.63-1.16-1.4c-.75-.77-1.45-1.4-1.56-1.4s.41.63,1.16,1.4M55.37,361.6c-.34,1.16-.55,2.18-.47,2.27.08.08.44-.79.78-1.95.35-1.16.55-2.18.47-2.27-.09-.09-.44.79-.78,1.95M291.89,361.8c-.22.58-.33,1.13-.24,1.22.09.09.36-.38.59-1.06.52-1.49.21-1.64-.35-.17M53.91,365.39c-.74,2.03-.78,2.15-.59,2.15.29,0,1.42-2.9,1.21-3.12-.11-.11-.38.33-.62.96M290.14,366.77c-.35,1.16-.55,2.18-.47,2.27s.44-.79.78-1.95c.34-1.16.55-2.18.47-2.27-.08-.09-.44.79-.78,1.95M52.07,369.79c-.33.79-.5,1.54-.38,1.67.12.12.22.12.22,0s.27-.87.6-1.67.5-1.45.38-1.45-.5.65-.83,1.44M288.34,373.17c-.25,1.15-.37,2.16-.28,2.26s.37-.77.62-1.92c.25-1.15.37-2.16.28-2.26-.09-.09-.37.77-.62,1.92M50.13,374.15c-.86,2.07-.75,2.3.22.46.45-.85.72-1.63.6-1.74-.11-.11-.49.47-.83,1.29M48.49,377.58c-.35.68-.57,1.31-.48,1.39.09.09.46-.47.82-1.24.82-1.73.54-1.86-.34-.16M286.97,380.02c-.43,2.38-1.13,11.98-.89,12.22.13.13.24-.2.24-.74,0-.53.26-3.58.57-6.76.54-5.6.57-7.46.08-4.72M46.69,381.18c-.46.9-.77,1.71-.68,1.79.08.08.54-.65,1.02-1.64,1.09-2.24.8-2.38-.34-.15M281.61,381.74c0,.88.09,1.19.18.7.1-.5.09-1.22,0-1.6-.1-.38-.18.02-.17.9M108.51,382.74c.86.88,1.65,1.6,1.76,1.6s-.5-.72-1.36-1.6c-.86-.88-1.65-1.6-1.76-1.6s.5.72,1.36,1.6M44.91,384.74c-.34.66-.53,1.2-.42,1.2s.48-.54.82-1.2.53-1.2.42-1.2-.48.54-.82,1.2M43.31,387.54c-.34.66-.53,1.2-.42,1.2s.48-.54.82-1.2c.34-.66.53-1.2.42-1.2s-.48.54-.82,1.2M86.01,387.83c.6.09,1.6.09,2.2,0,.61-.09.11-.17-1.1-.17s-1.71.07-1.1.17M41.51,391.14c-.45.88-.73,1.6-.62,1.6s.57-.72,1.02-1.6c.45-.88.73-1.6.62-1.6s-.57.72-1.02,1.6M39.71,394.34c-.34.66-.53,1.2-.42,1.2s.48-.54.82-1.2.53-1.2.42-1.2-.48.54-.82,1.2M80.91,394.53c-1.58.72-1.22.73,1,.04.99-.31,1.44-.57,1-.58-.44,0-1.34.24-2,.54M91.27,394.57c.86.32,1.65.49,1.76.38.26-.26-1.8-1.02-2.65-.99-.37.02.03.29.89.6M245.59,394.68c-.51.14,1.53.26,4.52.26s5.03-.12,4.52-.26c-.51-.14-2.54-.26-4.52-.26s-4.02.12-4.52.26M93.71,395.41c.22.2,1.3,1.05,2.4,1.88l2,1.51-1.6-1.47c-.88-.81-1.96-1.65-2.4-1.88s-.62-.25-.4-.05M76.71,396.34c-.77.42-1.22.77-1,.77s1.03-.34,1.8-.77c.77-.42,1.22-.77,1-.77s-1.03.34-1.8.77M240.84,396.07c-2.04.76-2.04,1.13,0,.43,1.03-.35,1.86-.71,1.86-.8,0-.24-.46-.15-1.87.37M258.49,395.86c.15.15,1.01.49,1.9.76s1.47.33,1.27.14c-.42-.4-3.57-1.29-3.17-.9M161.41,396.24c.93.08,2.46.08,3.4,0,.93-.08.17-.15-1.7-.15s-2.63.07-1.7.15M38.11,397.54c-.34.66-.53,1.2-.42,1.2s.48-.54.82-1.2c.34-.66.53-1.2.42-1.2s-.48.54-.82,1.2M73.81,397.77c-1.49.81-1.4,1.15.1.37.66-.34,1.2-.71,1.2-.81,0-.26-.04-.24-1.3.44M237.01,397.77c-1.49.81-1.4,1.15.1.37.66-.34,1.2-.71,1.2-.81,0-.26-.04-.24-1.3.44M262.91,397.47c.22.22,1.12.7,2,1.06.88.36,1.42.48,1.2.26s-1.12-.7-2-1.06-1.42-.48-1.2-.26M280.43,400.14c0,1.32.08,1.81.17,1.09.09-.72.09-1.8,0-2.4-.09-.6-.16-.01-.16,1.31M69.8,400.17c-1.26.79-2.29,1.53-2.29,1.65s.48-.1,1.06-.48c.59-.38,1.67-1.05,2.4-1.49,1.15-.68,1.62-1.11,1.22-1.11-.06,0-1.14.64-2.4,1.43M98.71,400.24c.52.71,1.01,1.3,1.09,1.3.3,0-.69-1.5-1.34-2.03-.43-.35-.33-.07.25.73M233.11,399.98l-1,.82,1.3-.63c.71-.35,1.3-.72,1.3-.82,0-.4-.64-.14-1.6.64M221.49,402.24l-1.38,1.5,1.5-1.38c1.4-1.28,1.68-1.62,1.38-1.62-.07,0-.74.67-1.5,1.5M228.43,403.29c-3.16,2.55-6.21,5.68-7.8,8.01-1.11,1.63-.54,1.05,2.45-2.46,1.36-1.59,3.9-4.01,5.65-5.36,1.75-1.36,3.18-2.53,3.18-2.6,0-.34-.52.02-3.48,2.41M269.61,400.98c.13.21,1.09,1,2.14,1.75,1.05.75,1.8,1.19,1.67.98s-1.09-1-2.14-1.75c-1.05-.75-1.8-1.19-1.67-.98M63.97,403.73c-2.82,1.8-3.17,2.25-.66.84,1.81-1.01,3.46-2.24,2.99-2.21-.1,0-1.15.62-2.33,1.38M34.51,404.34c-.34.66-.53,1.2-.42,1.2s.48-.54.82-1.2.53-1.2.42-1.2-.48.54-.82,1.2M185.51,405.74c.75.77,1.45,1.4,1.56,1.4s-.41-.63-1.16-1.4-1.45-1.4-1.56-1.4.41.63,1.16,1.4M59.61,406.39c-.72.46-1.3.91-1.3,1,0,.28,2.33-1.01,2.6-1.45.35-.56.18-.51-1.3.44M32.89,407.18c-.35.68-.57,1.31-.48,1.39.09.09.46-.47.82-1.24.82-1.73.54-1.86-.34-.16M102.07,407.15c.84,4.03,1.14,5.23,1.28,5.09.25-.25-.67-4.82-1.1-5.49-.29-.45-.33-.34-.18.41M56.61,408.17c-1.49.81-1.4,1.15.1.37.66-.34,1.2-.71,1.2-.81,0-.26-.04-.24-1.3.44M51.97,410.93c-2.65,1.69-3.2,2.24-1.06,1.06,1.62-.89,3.77-2.43,3.4-2.42-.11,0-1.16.62-2.34,1.37M279.86,410.68c.45.62,1.12,1.39,1.51,1.7.39.31.09-.2-.65-1.14-1.53-1.92-2.09-2.29-.86-.56M121.51,411.72c0,.76.14,1.46.31,1.57.17.1.24-.51.16-1.38-.18-1.93-.46-2.05-.46-.19M284.96,412.22c-.53.71-1.02.95-1.69.82-.52-.1-.85-.03-.73.16.4.65,1.63.34,2.56-.66.52-.55.86-1.07.77-1.16-.09-.09-.5.29-.92.84M29.11,414.34c-.45.88-.73,1.6-.62,1.6s.57-.72,1.02-1.6c.45-.88.73-1.6.62-1.6s-.57.72-1.02,1.6M47.61,413.59c-.72.46-1.3.91-1.3,1,0,.28,2.33-1.01,2.6-1.45.35-.56.18-.51-1.3.44M219.26,413.24c-.16.27-.58.94-.92,1.48-.39.61-.44.87-.13.67.52-.32,1.87-2.66,1.53-2.66-.1,0-.32.23-.48.5M103.67,420.14c0,3.08.06,4.29.14,2.68.08-1.6.08-4.12,0-5.6-.08-1.48-.14-.16-.14,2.92M175.91,414.87c0,.07.58.65,1.3,1.3l1.3,1.18-1.17-1.3c-1.1-1.21-1.43-1.48-1.43-1.17M157.99,415.52c-1.9.48-2.06.85-.23.51,2.01-.37,6.37-.36,8.15.01,1.18.25,1.27.22.6-.18-.98-.57-6.71-.81-8.52-.35M42.41,416.79c-.72.46-1.3.91-1.3,1,0,.28,2.33-1.01,2.6-1.45.35-.56.18-.51-1.3.44M27.64,417.04c-.14.39-.32.88-.42,1.1-.09.22.12.05.46-.38.63-.78.82-1.42.42-1.42-.12,0-.32.32-.46.7M153.64,416.87c-2.05.76-2.04,1.13,0,.43,1.03-.35,1.86-.71,1.86-.8,0-.24-.46-.15-1.87.37M167.91,416.52c0,.11.54.48,1.2.82s1.2.53,1.2.42-.54-.48-1.2-.82c-.66-.34-1.2-.53-1.2-.42M39.21,418.79c-1.36.87-1.81,1.46-.6.8.92-.5,2.36-1.62,2.1-1.62-.11,0-.78.37-1.5.83M149.29,418.93c-.43.32-.58.59-.35.6.23,0,.77-.25,1.2-.57.43-.32.58-.59.35-.6-.23,0-.77.25-1.2.57M215.36,419.64l-.72,1.3.82-1c.73-.89,1.06-1.6.73-1.6-.06,0-.44.58-.83,1.3M26.06,419.76c-.36.56-.56,1.11-.44,1.24.12.12.51-.33.86-1.01.77-1.49.5-1.64-.43-.23M146.31,420.84c-5.54,3.87-19.27,16.95-25.31,24.11-1.11,1.32.28-.03,3.1-3,10.13-10.67,15.66-15.78,23.24-21.48,1.77-1.33,1.01-1.06-1.03.37M173.09,420.08c.31.4,1.28,1.48,2.15,2.4l1.58,1.67-1.22-1.6c-.67-.88-1.64-1.96-2.15-2.4-.78-.67-.84-.68-.37-.07M35,421.37c-1.26.79-2.29,1.53-2.29,1.65s.48-.1,1.07-.48c.59-.38,1.67-1.05,2.4-1.49,1.15-.68,1.62-1.11,1.22-1.11-.06,0-1.14.64-2.4,1.43M213.51,422.74c-.45.88-.73,1.6-.62,1.6s.57-.72,1.02-1.6c.45-.88.73-1.6.62-1.6s-.57.72-1.02,1.6M24.55,422.58c-1.08,2.8,1.69,4.98,3.98,3.14.75-.6.75-.61-.1-.2-2.32,1.12-3.98.12-3.6-2.18.24-1.48.12-1.81-.28-.76M30.81,423.94c-.72.44-1.3.89-1.3,1.01,0,.32,2.31-.93,2.6-1.4.35-.56.19-.51-1.3.39M133.28,424.44l-1.18,1.3,1.3-1.17c1.21-1.1,1.48-1.43,1.18-1.43-.07,0-.65.58-1.3,1.3M211.71,425.94c-.34.66-.53,1.2-.42,1.2s.48-.54.82-1.2c.34-.66.53-1.2.42-1.2s-.48.54-.82,1.2M178.91,427.94c.34.66.71,1.2.82,1.2s-.08-.54-.42-1.2c-.34-.66-.71-1.2-.82-1.2s.08.54.42,1.2M210.55,427.89c-.44.72-1.07,2.64-.74,2.26.44-.51,1.34-2.6,1.12-2.6-.09,0-.26.15-.38.34M102.96,430.22c-.12.84-.33,2.61-.46,3.93-.13,1.32-.33,3.12-.46,4s-.1,1.49.04,1.35c.3-.28,1.49-10.41,1.25-10.65-.08-.08-.25.54-.38,1.38M180.34,430.54c0,.22.26.85.57,1.4.31.55.57.82.57.6s-.26-.85-.57-1.4c-.31-.55-.57-.82-.57-.6M208.51,431.94c-.34.66-.53,1.2-.42,1.2s.48-.54.82-1.2c.34-.66.53-1.2.42-1.2s-.48.54-.82,1.2M206.71,435.54c-.45.88-.73,1.6-.62,1.6s.57-.72,1.02-1.6c.45-.88.73-1.6.62-1.6s-.57.72-1.02,1.6M182.36,435.78c.23.86.58,1.73.77,1.93s.16-.34-.07-1.2c-.23-.86-.58-1.73-.77-1.93-.19-.2-.16.34.07,1.2M204.99,438.95c-.37.77-.58,1.4-.48,1.4.27,0,1.49-2.45,1.31-2.63-.09-.09-.46.47-.82,1.24M184.15,441.14c.14.77.41,1.67.61,2,.43.71.02-1.36-.51-2.6-.23-.54-.26-.34-.1.6M100.95,444.64c-.5,2.54-.66,4.3-.31,3.5.42-.96.99-4.6.72-4.6-.11,0-.29.5-.41,1.1M201.39,446.15c-.37.77-.58,1.39-.48,1.39.27,0,1.49-2.45,1.3-2.63-.09-.09-.46.47-.82,1.24M110.71,448.14c-.97.99-1.68,1.8-1.57,1.8s1-.81,1.97-1.8c.97-.99,1.68-1.8,1.57-1.8s-1,.81-1.97,1.8M185.76,447.74c.39,2.37.97,3.55.68,1.4-.13-.99-.4-2.07-.59-2.4-.22-.37-.25,0-.09,1M199.76,449.4c-.38.79-.6,1.53-.5,1.64.11.11.48-.48.82-1.31.82-1.95.57-2.2-.33-.33M115.31,451.14c-.63.66-1.06,1.28-.96,1.38.1.1.68-.44,1.29-1.2,1.36-1.7,1.2-1.78-.33-.18M99.12,453.81c-.25,1.28-.56,2.69-.68,3.13s-.09.67.07.52c.36-.34,1.49-5.58,1.25-5.82-.09-.09-.38.88-.63,2.16M197.91,453.35c-.23.61-.52,1.27-.63,1.46-.12.19-.12.34,0,.34.35,0,1.51-2.46,1.27-2.69-.12-.12-.41.28-.64.89M107.63,459.62c-3.04,3.34-6.16,6.78-6.95,7.65-1.01,1.12-1.75,1.58-2.54,1.58-.67,0-.92.12-.63.3,1.17.72,2.39-.25,6.67-5.27,1.06-1.25,3.61-4.08,5.67-6.3,2.06-2.22,3.64-4.03,3.52-4.03s-2.71,2.73-5.74,6.08M187.36,455.74c.71,5.22.93,6.13.74,3.14-.1-1.57-.36-3.28-.57-3.8-.31-.74-.34-.61-.17.66M196.71,455.63c0,.12-.27.87-.61,1.67-.33.8-.52,1.45-.41,1.45.32,0,1.44-2.9,1.22-3.13-.11-.11-.2-.11-.2.01M194.95,459.49c-.51.83-1,2.48-.67,2.28.2-.12.55-.76.78-1.42.4-1.15.35-1.59-.1-.86M97.17,462.01c-.26,1.13-.4,2.13-.31,2.22.09.09.38-.76.65-1.88.27-1.12.41-2.12.31-2.22-.1-.1-.39.75-.65,1.88M188.95,464.1c.12.32.5.69.85.82.97.37.93.09-.12-.69-.72-.54-.9-.57-.73-.13"/>
  </g>
</svg>